<svg fill="none" height="20" viewBox="0 0 20 20" width="20" xmlns="http://www.w3.org/2000/svg">
    <path
        d="M16.5493 6.74133C16.5493 7.09133 16.5243 7.433 16.4827 7.758C16.0993 7.59133 15.6827 7.49967 15.241 7.49967C14.2244 7.49967 13.3244 7.99133 12.766 8.74133C12.1994 7.99133 11.2993 7.49967 10.2827 7.49967C8.57435 7.49967 7.19102 8.89133 7.19102 10.6163C7.19102 12.8497 8.37435 14.558 9.69102 15.7163C9.64935 15.7413 9.60769 15.7497 9.56602 15.7663C9.31602 15.858 8.89935 15.858 8.64935 15.7663C6.49102 15.0247 1.66602 11.958 1.66602 6.74133C1.66602 4.44133 3.51601 2.58301 5.79934 2.58301C7.15768 2.58301 8.35768 3.233 9.10768 4.24133C9.86601 3.233 11.066 2.58301 12.416 2.58301C14.6993 2.58301 16.5493 4.44133 16.5493 6.74133Z"
        stroke="#646568" stroke-linecap="round" stroke-linejoin="round" stroke-width="1.25" />
    <path
        d="M18.3331 10.6167C18.3331 14.5167 14.7247 16.8167 13.1081 17.3667C12.9164 17.4333 12.6081 17.4333 12.4164 17.3667C11.7247 17.1333 10.6664 16.575 9.69141 15.7167C8.37474 14.5583 7.19141 12.85 7.19141 10.6167C7.19141 8.89166 8.57473 7.5 10.2831 7.5C11.2997 7.5 12.1997 7.99166 12.7664 8.74166C13.3247 7.99166 14.2247 7.5 15.2414 7.5C15.6831 7.5 16.0997 7.59166 16.4831 7.75833C17.5747 8.24166 18.3331 9.33333 18.3331 10.6167Z"
        stroke="#616161" stroke-linecap="round" stroke-linejoin="round" stroke-width="1.25" />
</svg>
