<svg fill="none" height="24" viewBox="0 0 25 24" width="25" xmlns="http://www.w3.org/2000/svg">
    <g clip-path="url(#clip0_395_10767)">
        <path
            d="M24.0078 12.2242C24.0078 11.2409 23.9295 10.5234 23.7598 9.7793H12.7295V14.2173H19.2041C19.0736 15.3202 18.3687 16.9811 16.8022 18.0972L16.7802 18.2458L20.2678 20.996L20.5095 21.0205C22.7285 18.9344 24.0078 15.8649 24.0078 12.2242Z"
            fill="#4285F4" />
        <path
            d="M12.7296 23.9178C15.9016 23.9178 18.5645 22.8548 20.5095 21.0211L16.8023 18.0978C15.8102 18.8021 14.4787 19.2937 12.7296 19.2937C9.6228 19.2937 6.98598 17.2076 6.04603 14.3242L5.90825 14.3361L2.2818 17.193L2.23438 17.3272C4.1663 21.2337 8.13462 23.9178 12.7296 23.9178Z"
            fill="#34A853" />
        <path
            d="M6.04621 14.3248C5.7982 13.5807 5.65466 12.7834 5.65466 11.9596C5.65466 11.1357 5.7982 10.3385 6.03316 9.59439L6.02659 9.43592L2.3547 6.5332L2.23457 6.59137C1.43833 8.21247 0.981445 10.0329 0.981445 11.9596C0.981445 13.8863 1.43833 15.7066 2.23457 17.3277L6.04621 14.3248Z"
            fill="#FBBC05" />
        <path
            d="M12.7295 4.62403C14.9356 4.62403 16.4237 5.59401 17.2722 6.40461L20.5878 3.10928C18.5515 1.1826 15.9015 0 12.7295 0C8.13462 0 4.1663 2.68406 2.23438 6.59056L6.03297 9.59359C6.98597 6.7102 9.62279 4.62403 12.7295 4.62403Z"
            fill="#EB4335" />
    </g>
    <defs>
        <clipPath id="clip0_395_10767">
            <rect fill="white" height="24" transform="translate(0.980469)" width="23.04" />
        </clipPath>
    </defs>
</svg>
