<svg width="82" height="93" viewBox="0 0 82 93" fill="none" xmlns="http://www.w3.org/2000/svg">
<path d="M0.506011 89.5633L74.98 88.7256L66.1811 19.6303L13.704 16.6323L0.506011 89.5633Z" fill="#8BC6FF" stroke="#1D55F3" stroke-width="0.0100219"/>
<path d="M12.3436 92.495H81.8943L74.9812 21.1206L66.4968 22.0305L74.9907 88.7301L74.9857 88.7308L74.9808 88.7314L74.9426 88.7363L12.7332 89.4363L12.3436 92.495Z" fill="#0051FF" fill-opacity="0.6" stroke="#1D55F3" stroke-width="0.0100219"/>
<path d="M20.6914 26.9407L12.7342 89.4266L74.9798 88.7262L66.4866 22.0319L20.6914 26.9407Z" fill="#0051FF" fill-opacity="0.6" stroke="#1D55F3" stroke-width="0.0100219"/>
<path d="M29.5226 14.6551H33.9633C33.966 9.29897 38.3267 4.94293 43.6855 4.94293C49.0453 4.94293 53.4051 9.29897 53.4078 14.6551H57.8485C57.8458 6.85215 51.4932 0.504233 43.6855 0.504233C35.8779 0.504233 29.5253 6.85215 29.5226 14.6551Z" fill="#5982DA" stroke="#1D55F3" stroke-width="0.0100219"/>
</svg>
