<svg fill="none" height="228" viewBox="0 0 331 228" width="331" xmlns="http://www.w3.org/2000/svg">
    <path
        d="M52.4762 218.44C63.0274 209.802 64.392 195.287 62.8978 182.464C62.6462 180.322 62.6995 178.042 61.5102 176.243C60.321 174.444 57.8052 173.354 55.9297 174.421C54.405 175.305 53.8256 177.219 53.048 178.828C52.0026 180.989 50.3698 182.812 48.3366 184.088C47.0101 184.911 45.3329 185.483 43.8997 184.85C41.9404 183.981 41.5135 181.442 41.3534 179.308C41.0484 175.328 40.7486 171.346 40.4538 167.362C40.4036 165.216 40.0072 163.092 39.2797 161.072C38.4411 159.105 36.8021 157.344 34.7056 156.948C32.6091 156.551 30.1314 157.924 29.8874 160.051C29.8776 160.942 29.9286 161.834 30.0399 162.719C30.0832 163.161 29.9967 163.607 29.7909 164.001C29.5851 164.395 29.269 164.72 28.8811 164.937C28.0425 165.258 27.1277 164.724 26.4263 164.175C24.0172 162.208 22.2714 159.555 20.6323 156.91C18.9933 154.264 17.3847 151.573 15.1662 149.362C12.9477 147.151 9.98975 145.55 6.8793 145.627C3.76886 145.703 0.620301 147.876 0.0866463 150.963C-0.447008 154.051 1.57325 156.948 3.70787 159.22C6.88714 162.576 10.5331 165.456 14.5334 167.773C15.3001 168.115 15.9382 168.692 16.3555 169.42C16.9425 170.808 15.6922 172.332 14.3123 172.919C12.7419 173.583 10.9732 173.56 9.30362 173.895C7.63404 174.231 5.86536 175.115 5.35458 176.739C4.6532 179.026 6.68871 181.13 8.62512 182.479C12.5275 185.181 16.8611 187.2 21.4404 188.449C23.0795 188.891 24.7948 189.257 26.1671 190.255C27.5393 191.254 28.4542 193.107 27.8214 194.677C27.1887 196.248 25.2218 196.888 23.5293 196.72C21.8369 196.553 20.274 195.783 18.6349 195.325C15.5855 194.464 11.7737 194.982 10.0507 197.673C9.54125 198.591 9.25444 199.615 9.21339 200.664C9.17234 201.713 9.3782 202.756 9.8144 203.711C10.7018 205.61 11.9618 207.31 13.5195 208.712C18.7086 213.923 25.1842 217.669 32.2889 219.568C39.3788 221.36 45.8208 221.474 52.4762 218.44Z"
        fill="#EBEBEB" />
    <path
        d="M53.3985 227.961C52.3026 222.048 50.6354 216.255 48.4202 210.663C45.683 203.833 42.5495 197.169 39.0356 190.704L36.2834 185.612C35.3838 183.935 34.4919 182.273 33.516 180.702C31.646 177.692 29.6099 174.788 27.4171 172.004C25.3359 169.328 23.2546 166.858 21.3182 164.571C19.3818 162.284 17.5064 160.187 15.6996 158.342C12.8881 155.425 9.85225 152.734 6.61987 150.292C5.47633 149.423 4.56149 148.767 3.94398 148.355L3.23498 147.867C3.15401 147.812 3.07002 147.761 2.9834 147.715C2.9834 147.715 3.05963 147.783 3.21211 147.898L3.90586 148.409C4.51575 148.851 5.43059 149.506 6.54364 150.391C9.73906 152.865 12.7436 155.577 15.5319 158.502C17.3082 160.347 19.1684 162.451 21.12 164.746C23.0717 167.041 25.1301 169.511 27.2189 172.187C29.4109 174.966 31.447 177.865 33.3178 180.87C34.286 182.433 35.1704 184.087 36.07 185.764L38.7992 190.865C42.2839 197.32 45.4043 203.966 48.1458 210.77C50.3635 216.341 52.0483 222.11 53.1774 227.999"
        fill="#E0E0E0" />
    <path
        d="M33.4557 180.664C33.5272 180.359 33.5681 180.048 33.5777 179.734C33.6386 179.14 33.6996 178.263 33.7606 177.188C33.8902 175.038 33.9665 172.065 34.0427 168.802C34.1189 165.539 34.2409 162.551 34.4163 160.416C34.4925 159.341 34.5764 158.48 34.6373 157.877C34.6818 157.569 34.7022 157.258 34.6983 156.947C34.6041 157.245 34.5402 157.552 34.5077 157.862C34.4086 158.457 34.2943 159.326 34.1876 160.393C33.9512 162.543 33.7911 165.516 33.7149 168.779C33.6386 172.042 33.5853 174.977 33.5395 177.165C33.5014 178.194 33.4786 179.056 33.4557 179.711C33.4249 180.028 33.4249 180.347 33.4557 180.664Z"
        fill="#E0E0E0" />
    <path
        d="M5.22461 177.828H5.51431H6.34528C7.06191 177.828 8.09872 177.828 9.39474 177.866C11.9639 177.919 15.4936 178.118 19.4198 178.522C23.346 178.926 26.8376 179.444 29.3687 179.894C30.6342 180.115 31.6557 180.313 32.3647 180.45L33.1728 180.61C33.3634 180.61 33.4626 180.656 33.4626 180.61C33.3768 180.565 33.284 180.534 33.1881 180.519L32.3876 180.298C31.6939 180.123 30.6723 179.886 29.4068 179.642C26.8834 179.131 23.3612 178.575 19.4503 178.163C15.5394 177.752 11.9791 177.599 9.39474 177.607C8.10634 177.607 7.10765 177.607 6.34528 177.675L5.52193 177.729C5.41823 177.746 5.31788 177.779 5.22461 177.828Z"
        fill="#E0E0E0" />
    <path
        d="M48.0693 210.176C48.1293 210.06 48.1803 209.941 48.2218 209.817C48.3285 209.551 48.4505 209.208 48.6106 208.788C48.9461 207.889 49.373 206.57 49.9371 204.976C51.0121 201.721 52.3614 197.177 53.7947 192.138C55.2279 187.099 56.5316 182.555 57.5531 179.285C58.0639 177.684 58.4756 176.373 58.7805 175.412C58.9178 174.985 59.0245 174.65 59.1084 174.36C59.1552 174.239 59.1884 174.114 59.2075 173.986C59.1395 174.096 59.0857 174.214 59.0474 174.337C58.9483 174.611 58.8187 174.955 58.6586 175.374C58.3231 176.273 57.8962 177.585 57.3397 179.186C56.2571 182.441 54.9077 186.985 53.4821 192.024C52.0565 197.063 50.7681 201.622 49.716 204.877C49.2129 206.478 48.7936 207.79 48.4963 208.742C48.359 209.177 48.2523 209.505 48.1608 209.802C48.1182 209.923 48.0876 210.049 48.0693 210.176Z"
        fill="#E0E0E0" />
    <path
        d="M10.1494 201.462C10.2675 201.519 10.3934 201.557 10.523 201.576L11.6284 201.835L15.6994 202.766C19.1301 203.528 23.8567 204.694 29.0789 205.975C34.3011 207.256 39.0354 208.369 42.4812 209.101C44.2042 209.467 45.5993 209.749 46.5675 209.924L47.6806 210.122C47.8108 210.152 47.9435 210.17 48.077 210.176C47.9558 210.12 47.8275 210.082 47.6958 210.061L46.5904 209.802L42.527 208.872C39.0964 208.11 34.3697 206.943 29.1551 205.663C23.9406 204.382 19.1987 203.269 15.7528 202.537C14.0298 202.171 12.6347 201.889 11.6665 201.713L10.5458 201.508C10.4152 201.482 10.2826 201.466 10.1494 201.462Z"
        fill="#E0E0E0" />
    <path d="M152.628 0.597275L97.5088 17.1758L108.683 54.3283L163.803 37.7498L152.628 0.597275Z"
        fill="white" />
    <path
        d="M163.812 37.7138C163.812 37.7138 163.728 37.4775 163.59 37.0353C163.453 36.5931 163.247 35.9222 162.981 35.0684C162.455 33.3454 161.677 30.822 160.693 27.6049C158.727 21.1476 155.913 11.8849 152.483 0.609571L152.681 0.716301L97.5774 17.3587L97.7146 17.1071L108.876 54.2647L108.647 54.1427L148.351 42.288L159.718 38.9259L162.767 38.034L163.529 37.8053L163.804 37.7367L163.56 37.8205L162.798 38.0645L159.809 38.9793L148.511 42.4328L108.746 54.4858L108.571 54.5392L108.517 54.3638C105.11 43.0427 101.313 30.4561 97.3258 17.2138L97.2725 17.0233L97.4554 16.9699L152.582 0.426599L152.734 0.380859L152.78 0.533336C156.157 11.8697 158.925 21.1781 160.861 27.6658C161.807 30.883 162.554 33.3988 163.057 35.1294C163.308 35.968 163.491 36.616 163.629 37.0734C163.766 37.5308 163.812 37.7138 163.812 37.7138Z"
        fill="#E0E0E0" />
    <path
        d="M152.635 0.586656C152.615 0.644792 152.59 0.700933 152.559 0.754371L152.3 1.22704C152.048 1.66159 151.705 2.26385 151.278 3.02622L147.429 9.63591L134.514 31.5386L134.423 31.6835L134.27 31.6225L132.585 30.9745L107.755 21.2848L100.246 18.3116L98.218 17.4806L97.6919 17.2595C97.629 17.2385 97.5698 17.2077 97.5166 17.1681C97.5829 17.1738 97.6475 17.1919 97.7072 17.2214L98.2408 17.4044L100.307 18.1668L107.854 21.0256L132.723 30.6009L134.415 31.2565L134.171 31.3404C139.279 22.7638 143.868 15.0792 147.192 9.49106L151.149 2.94998C151.606 2.18762 151.972 1.61585 152.231 1.1813L152.529 0.731501C152.59 0.632394 152.628 0.579032 152.635 0.586656Z"
        fill="#E0E0E0" />
    <path
        d="M313.022 149.019C313.022 149.019 309.446 145.481 302.478 154.317C298.825 158.79 295.471 163.499 292.438 168.413C292.438 168.413 290.7 170.212 289.556 168.581C288.413 166.95 287.231 162.741 284.685 162.955C282.138 163.168 280.675 165.791 280.331 169.976C279.988 174.161 278.913 183.317 278.807 184.141C278.7 184.964 278.044 186.039 277.061 185.056C276.077 184.072 271.13 175.701 267.28 178.278C263.43 180.855 264.406 192.702 264.49 193.991C264.573 195.279 264.223 195.767 263.582 195.95C262.942 196.133 261.532 193.16 260.014 190.834C258.497 188.509 256.34 186.062 254.251 187.747C252.162 189.432 249.944 197.719 255.219 212.943L258.124 219.804L265.557 220.864C281.62 222.152 289.091 217.936 290.196 215.489C291.302 213.042 288.405 211.563 285.767 210.679C283.129 209.794 279.897 209.154 279.92 208.506C279.943 207.858 280.316 207.385 281.589 207.141C282.863 206.897 294.55 204.854 296.074 200.501C297.599 196.148 288.26 193.419 287.063 192.733C285.866 192.047 286.751 191.109 287.513 190.812C288.275 190.514 296.875 187.167 300.847 185.795C304.819 184.423 307.007 182.425 306.557 179.818C306.107 177.211 301.754 177.219 299.886 176.51C298.018 175.801 299.33 173.681 299.33 173.681C303.346 169.524 307.082 165.106 310.513 160.454C317.321 151.489 312.884 148.874 312.884 148.874"
        fill="#EBEBEB" />
    <path
        d="M306.74 156.886C306.706 156.954 306.665 157.018 306.618 157.077L306.229 157.626C305.863 158.114 305.353 158.808 304.705 159.692C303.37 161.483 301.426 164.06 299.002 167.232C294.161 173.575 287.391 182.281 279.874 191.856L260.648 216.412L254.846 223.875L253.26 225.896L252.841 226.414C252.742 226.528 252.696 226.589 252.688 226.582C252.723 226.514 252.764 226.45 252.81 226.391L253.199 225.85L254.724 223.776C256.051 221.985 258.002 219.408 260.419 216.236C265.26 209.894 272.037 201.187 279.562 191.612C287.086 182.037 293.848 173.361 298.781 167.056C301.213 163.923 303.195 161.384 304.583 159.6C305.253 158.739 305.787 158.076 306.161 157.573L306.588 157.054C306.679 156.94 306.732 156.879 306.74 156.886Z"
        fill="#E0E0E0" />
    <path
        d="M286.102 168.908C286.268 169.562 286.363 170.232 286.385 170.906C286.499 172.141 286.598 173.856 286.667 175.754C286.735 177.653 286.766 179.223 286.804 180.603C286.86 181.273 286.86 181.946 286.804 182.616C286.639 181.962 286.547 181.292 286.529 180.618C286.43 179.375 286.346 177.66 286.278 175.769C286.209 173.879 286.163 172.301 286.11 170.921C286.049 170.251 286.047 169.578 286.102 168.908Z"
        fill="#E0E0E0" />
    <path
        d="M287.444 182.883C290.053 182.462 292.681 182.174 295.32 182.022C299.673 181.663 303.218 181.458 303.225 181.564C300.616 181.981 297.988 182.266 295.35 182.418C290.997 182.784 287.46 182.99 287.444 182.883Z"
        fill="#E0E0E0" />
    <path
        d="M274.797 197.581C275.481 197.634 276.159 197.743 276.825 197.909C278.075 198.145 279.79 198.473 281.696 198.778C283.602 199.083 285.333 199.312 286.591 199.472C287.277 199.526 287.958 199.636 288.626 199.8C287.94 199.858 287.25 199.843 286.568 199.754C285.295 199.662 283.518 199.479 281.635 199.167C279.752 198.854 277.999 198.488 276.764 198.183C276.088 198.053 275.429 197.852 274.797 197.581Z"
        fill="#E0E0E0" />
    <path
        d="M270.802 185.216C271.118 185.769 271.374 186.354 271.564 186.962C271.968 188.067 272.509 189.592 273.089 191.284C273.668 192.977 274.156 194.517 274.499 195.645C274.714 196.241 274.872 196.856 274.972 197.482C274.651 196.929 274.395 196.341 274.21 195.729C273.798 194.631 273.264 193.106 272.685 191.414C272.105 189.721 271.617 188.174 271.274 187.053C271.051 186.46 270.892 185.844 270.802 185.216Z"
        fill="#E0E0E0" />
    <path
        d="M257.986 196.773C258.353 197.498 258.664 198.25 258.916 199.022C259.442 200.433 260.144 202.384 260.899 204.55C261.653 206.715 262.309 208.682 262.774 210.107C263.061 210.87 263.283 211.655 263.437 212.455C263.064 211.72 262.753 210.955 262.507 210.168C261.981 208.765 261.28 206.814 260.525 204.649C259.77 202.484 259.107 200.517 258.65 199.083C258.364 198.333 258.142 197.561 257.986 196.773Z"
        fill="#E0E0E0" />
    <path
        d="M263.415 212.043C264.283 212.093 265.147 212.205 265.999 212.378C267.585 212.63 269.811 212.973 272.213 213.293C274.614 213.613 276.848 213.857 278.441 214.056C279.309 214.113 280.173 214.227 281.026 214.399C280.156 214.451 279.284 214.431 278.418 214.338C276.81 214.231 274.607 214.033 272.159 213.705C269.712 213.377 267.524 212.996 265.946 212.683C265.086 212.539 264.24 212.325 263.415 212.043Z"
        fill="#E0E0E0" />
    <path d="M279.371 74.0116L277.564 133.136L320.77 134.456L322.577 75.3316L279.371 74.0116Z"
        fill="#F5F5F5" />
    <path d="M271.417 81.8719L269.61 140.996L312.816 142.316L314.623 83.192L271.417 81.8719Z"
        fill="white" />
    <path
        d="M312.808 142.302C312.803 142.206 312.803 142.109 312.808 142.013C312.808 141.815 312.808 141.54 312.808 141.182C312.808 140.419 312.846 139.352 312.884 137.949C312.96 135.121 313.067 131.012 313.204 125.805C313.501 115.399 313.921 100.647 314.416 83.1812L314.592 83.3641L271.388 82.0605L271.594 81.8699C270.9 103.978 270.268 124.402 269.749 140.991L269.589 140.823L300.968 141.868L309.697 142.173L311.984 142.264L312.785 142.302H312.022L309.735 142.249L301.044 142.028L269.566 141.151H269.406V140.991C269.902 124.395 270.512 103.948 271.175 81.8623V81.6641H271.381L314.576 83.0058H314.759V83.1888C314.187 100.723 313.707 115.498 313.364 125.927C313.189 131.111 313.044 135.212 312.952 138.026C312.899 139.413 312.861 140.48 312.83 141.22C312.83 141.571 312.83 141.845 312.792 142.036C312.754 142.226 312.808 142.302 312.808 142.302Z"
        fill="#E0E0E0" />
    <path
        d="M297.775 95.5468C297.775 95.6612 293.071 95.6002 287.277 95.4248C281.483 95.2495 276.779 95.0132 276.779 94.9064C276.779 94.7997 281.491 94.8531 287.285 95.0284C293.079 95.2037 297.775 95.4401 297.775 95.5468Z"
        fill="#E0E0E0" />
    <path
        d="M308.935 101.035C308.935 101.142 301.693 101.035 292.758 100.738C283.823 100.441 276.58 100.151 276.588 100.044C276.596 99.9376 283.83 100.044 292.773 100.342C301.715 100.639 308.943 100.921 308.935 101.035Z"
        fill="#E0E0E0" />
    <path
        d="M308.776 106.395C308.776 106.501 301.526 106.395 292.591 106.097C283.656 105.8 276.421 105.51 276.421 105.404C276.421 105.297 283.671 105.404 292.606 105.701C301.541 105.998 308.776 106.28 308.776 106.395Z"
        fill="#E0E0E0" />
    <path
        d="M308.608 111.754C308.608 111.861 301.365 111.754 292.43 111.457C283.496 111.159 276.261 110.87 276.261 110.763C276.261 110.656 283.511 110.763 292.446 111.06C301.381 111.358 308.615 111.663 308.608 111.754Z"
        fill="#E0E0E0" />
    <path
        d="M308.447 117.114C308.447 117.221 301.197 117.114 292.27 116.817C283.343 116.52 276.093 116.23 276.093 116.123C276.093 116.017 283.343 116.123 292.278 116.421C301.213 116.718 308.447 117 308.447 117.114Z"
        fill="#E0E0E0" />
    <path
        d="M308.287 122.473C308.287 122.58 301.037 122.473 292.102 122.176C283.167 121.878 275.933 121.589 275.933 121.482C275.933 121.375 283.183 121.482 292.118 121.779C301.052 122.076 308.287 122.336 308.287 122.473Z"
        fill="#E0E0E0" />
    <path
        d="M308.12 127.833C308.12 127.94 300.869 127.833 291.942 127.536C283.015 127.239 275.765 126.949 275.772 126.842C275.78 126.735 283.015 126.842 291.95 127.139C300.885 127.437 308.127 127.719 308.12 127.833Z"
        fill="#E0E0E0" />
    <path
        d="M292.994 132.735C292.994 132.842 289.098 132.811 284.295 132.666C279.493 132.522 275.604 132.308 275.604 132.201C275.604 132.095 279.5 132.125 284.303 132.27C289.106 132.415 292.994 132.621 292.994 132.735Z"
        fill="#E0E0E0" />
    <path d="M184.833 27.7771L171.313 61.7324L213.782 78.6414L227.302 44.6861L184.833 27.7771Z"
        fill="white" />
    <path
        d="M227.294 44.6897L227.088 44.6135L226.494 44.3848L224.207 43.47L215.493 40.0012L184.8 27.8034L184.891 27.7653L171.382 61.7133L171.337 61.6066L213.8 78.531H213.716C217.803 68.3001 221.195 59.8227 223.559 53.8991C224.748 50.9411 225.678 48.6159 226.311 47.0378L227.073 45.231L227.325 44.6059L227.088 45.2234C226.928 45.6351 226.692 46.2373 226.379 47.0226C225.754 48.6083 224.855 50.9335 223.665 53.8839C221.31 59.815 217.932 68.3154 213.869 78.5692V78.6302H213.808L171.283 61.8048H171.207V61.7286C176.094 49.4698 180.706 37.8818 184.731 27.7805V27.7119H184.792L215.561 40.0012L224.229 43.4776L226.516 44.3924L227.104 44.6288L227.294 44.6897Z"
        fill="#E0E0E0" />
    <path d="M185.414 30.5357L173.598 60.2129L213.085 75.9347L224.901 46.2574L185.414 30.5357Z"
        fill="#EBEBEB" />
    <path
        d="M173.753 60.3029L194.893 47.3428L198.842 62.2851L207.091 58.4275L213.243 76.0229L173.753 60.3029Z"
        fill="#E0E0E0" />
    <path
        d="M207.96 49.9115C207.715 50.5267 207.294 51.0554 206.748 51.4308C206.203 51.8062 205.558 52.0114 204.896 52.0204C204.234 52.0294 203.584 51.8418 203.029 51.4814C202.473 51.1209 202.037 50.6038 201.776 49.9955C201.514 49.3872 201.439 48.715 201.56 48.064C201.681 47.413 201.992 46.8124 202.454 46.3382C202.916 45.864 203.508 45.5375 204.156 45.4C204.804 45.2626 205.478 45.3204 206.092 45.566C206.501 45.7281 206.873 45.9693 207.188 46.2756C207.503 46.5819 207.755 46.9474 207.928 47.3511C208.102 47.7548 208.194 48.1887 208.2 48.6281C208.205 49.0675 208.124 49.5036 207.96 49.9115Z"
        fill="#E0E0E0" />
    <path
        d="M75.5076 97.0718C75.7946 97.1902 76.1053 97.2398 76.4148 97.2167C76.7858 97.1741 77.1306 97.0044 77.3907 96.7364C77.6923 96.3188 77.96 95.8778 78.1911 95.4175L83.1389 86.7875L84.7856 83.9363L85.6623 82.4116C85.8149 82.1686 85.9475 81.9137 86.0587 81.6492C86.1389 81.3858 86.1389 81.1045 86.0587 80.8411C85.9902 80.57 85.8382 80.3274 85.6242 80.1474C85.3799 79.9745 85.1253 79.8166 84.8618 79.6747L83.1618 78.7294L79.6244 76.7472L63.874 67.9114C63.5632 67.7452 63.202 67.7 62.8599 67.7845C62.5178 67.8689 62.2191 68.0771 62.0214 68.3688L60.8397 70.3967C60.0774 71.7385 59.315 73.0726 58.5527 74.3763L54.131 81.9313C53.9556 82.2286 53.7803 82.5259 53.6125 82.8232C53.4427 83.0808 53.355 83.3839 53.361 83.6923C53.373 83.9935 53.4827 84.2825 53.6735 84.5157C53.8901 84.7401 54.1493 84.9189 54.4359 85.0417L57.7674 86.9324L63.7291 90.3173L72.3591 95.2498L74.6995 96.6068L75.3018 96.9651C75.439 97.049 75.5076 97.0947 75.5 97.1023L75.2865 97.0032L74.6614 96.6754L72.2904 95.3794L63.5919 90.5612L57.6302 87.184L54.291 85.3162C53.9675 85.1733 53.6749 84.9687 53.4296 84.7139C53.1914 84.4194 53.055 84.0556 53.0408 83.6771C53.0244 83.2999 53.1257 82.9269 53.3305 82.6098C53.4982 82.3125 53.6735 82.0151 53.8489 81.7178L58.2172 74.178L60.5043 70.1985L61.7012 68.1477C61.9536 67.7737 62.3358 67.5066 62.7738 67.3981C63.2118 67.2897 63.6744 67.3476 64.0722 67.5607L79.8073 76.427L83.3447 78.4244L85.0295 79.385C85.3205 79.5329 85.6007 79.701 85.8681 79.8882C86.134 80.115 86.323 80.4186 86.4094 80.7572C86.501 81.0813 86.501 81.4243 86.4094 81.7483C86.2879 82.0369 86.1426 82.3149 85.9749 82.5793L85.0829 84.104L83.421 86.9476C81.294 90.546 79.571 93.4658 78.3665 95.5166C78.1164 95.9776 77.8309 96.4186 77.5126 96.8355C77.2289 97.1136 76.8566 97.2835 76.4606 97.3158C76.221 97.3334 75.9807 97.2942 75.7592 97.2014C75.6698 97.17 75.5851 97.1264 75.5076 97.0718Z"
        fill="#E0E0E0" />
    <path
        d="M71.482 81.4427L73.4032 84.8505L69.4389 84.9267L65.4746 84.9953L67.5177 81.5113L69.5609 78.0273L71.482 81.4427Z"
        fill="#E0E0E0" />
    <path
        d="M330.022 226.78C330.022 226.894 257.102 226.986 167.181 226.986C77.2603 226.986 4.31738 226.909 4.31738 226.78C4.31738 226.65 77.2222 226.566 167.181 226.566C257.14 226.566 330.022 226.681 330.022 226.78Z"
        fill="#212121" />
    <path
        d="M84.9308 178.363L61.915 155.24L73.4877 133.986C85.0604 119.165 109.563 120.118 109.563 120.118C121.651 119.297 133.794 120.042 145.691 122.337C165.154 126.149 163.584 139.002 163.584 139.002L166.191 186.703L168.989 225.546L97.2125 226.994L84.9308 178.393"
        fill="#246BFD" />
    <path
        d="M123.597 224.722L59.3073 225.484C55.7657 225.525 52.2717 224.665 49.1536 222.986C46.0354 221.306 43.3954 218.861 41.4815 215.881C39.5676 212.9 38.4426 209.483 38.2122 205.948C37.9818 202.414 38.6536 198.879 40.1644 195.676L67.6552 144.696L92.6988 161.621L75.6143 197.048L127.653 197.978L123.597 224.722Z"
        fill="#246BFD" />
    <path
        d="M161.312 131.226L212.901 210.877L182.803 212.844C182.803 212.844 164.826 184.522 165.23 185.102C165.947 186.169 161.312 131.226 161.312 131.226Z"
        fill="#246BFD" />
    <path
        d="M91.4027 166.204C91.4046 166.064 91.4277 165.925 91.4713 165.792C91.5475 165.487 91.6314 165.106 91.7458 164.633C91.9821 163.634 92.3328 162.186 92.6911 160.387C93.0494 158.588 93.4535 156.422 93.705 154.013C94.0147 151.403 94.0147 148.764 93.705 146.153C93.2914 143.565 92.3884 141.078 91.0444 138.827C89.9642 136.974 88.6861 135.243 87.2326 133.666C86.2528 132.588 85.209 131.569 84.1069 130.616C83.6867 130.288 83.2846 129.937 82.9023 129.564C83.0264 129.626 83.1439 129.7 83.253 129.786C83.4665 129.946 83.8096 130.167 84.206 130.495C85.3524 131.4 86.4326 132.386 87.4384 133.445C88.9411 135.011 90.2608 136.742 91.3722 138.606C92.7635 140.892 93.6957 143.427 94.1167 146.07C94.4186 148.713 94.3981 151.383 94.0557 154.021C93.7982 156.168 93.4318 158.3 92.9579 160.41C92.5615 162.216 92.1956 163.657 91.883 164.648C91.7458 165.144 91.6238 165.525 91.5399 165.784C91.5078 165.928 91.4618 166.069 91.4027 166.204Z"
        fill="#212121" />
    <path
        d="M89.3289 168.947C89.2188 169.344 89.0707 169.73 88.8867 170.098C88.5817 170.861 88.1243 171.882 87.5373 173.148C86.3709 175.732 84.7166 179.285 82.8107 183.173C80.9047 187.061 79.1056 190.545 77.7714 193.084C77.1006 194.334 76.5516 195.371 76.1628 196.034C75.9772 196.403 75.7631 196.758 75.5225 197.094C75.6594 196.705 75.8277 196.327 76.0256 195.965C76.4144 195.203 76.9176 194.181 77.5504 192.954L82.4828 183.043C84.3506 179.178 86.0507 175.687 87.3162 173.072C87.9109 171.844 88.3988 170.823 88.78 170.022C88.9325 169.649 89.1161 169.29 89.3289 168.947Z"
        fill="#212121" />
    <path
        d="M123.598 224.722C123.598 224.722 123.598 224.676 123.598 224.593C123.598 224.509 123.598 224.356 123.598 224.196C123.636 223.83 123.689 223.319 123.75 222.671C123.903 221.314 124.116 219.386 124.383 216.954C124.947 212.021 125.755 205.084 126.67 196.904L126.853 197.102H107.863L74.6923 197.048L64.6291 196.987L61.8922 196.949H61.1756H60.9316C61.0127 196.94 61.0946 196.94 61.1756 196.949H61.8922L64.6291 196.911L74.6923 196.85L107.916 196.797H126.907H127.112V196.995C126.106 205.168 125.26 212.105 124.65 217.03C124.345 219.454 124.093 221.383 123.888 222.74C123.806 223.38 123.738 223.889 123.682 224.265L123.621 224.654C123.613 224.676 123.606 224.722 123.598 224.722Z"
        fill="#212121" />
    <path
        d="M76.0644 197.612C75.6039 197.103 75.1761 196.566 74.7836 196.003C72.729 193.424 70.1848 191.276 67.2972 189.683C66.6805 189.385 66.08 189.054 65.498 188.692C66.1748 188.851 66.8246 189.108 67.4268 189.455C70.4343 190.941 73.035 193.136 75.0047 195.851C75.4375 196.386 75.7942 196.979 76.0644 197.612Z"
        fill="#212121" />
    <path
        d="M167.258 202.66C167.202 202.442 167.166 202.22 167.151 201.996C167.098 201.531 167.029 200.899 166.938 200.098C166.762 198.451 166.526 196.065 166.274 193.115C165.748 187.206 165.146 179.034 164.612 170.008C164.079 160.981 163.705 152.793 163.492 146.87C163.385 143.904 163.309 141.533 163.278 139.848C163.278 139.048 163.278 138.415 163.24 137.943C163.229 137.722 163.229 137.5 163.24 137.279C163.282 137.498 163.305 137.72 163.309 137.943C163.309 138.408 163.37 139.048 163.415 139.848C163.499 141.541 163.614 143.927 163.759 146.855C164.041 152.778 164.46 160.951 164.994 169.985C165.527 179.019 166.091 187.176 166.518 193.092C166.747 196.012 166.93 198.428 167.06 200.09C167.121 200.853 167.166 201.524 167.204 201.989C167.242 202.21 167.26 202.435 167.258 202.66Z"
        fill="#212121" />
    <path
        d="M109.868 159.318C109.871 158.968 109.899 158.619 109.952 158.274C110.043 157.549 110.157 156.581 110.302 155.392C110.638 152.876 111.065 149.43 111.629 145.435L111.918 145.618L106.986 149.072L101.97 152.564L101.611 152.815L101.672 152.381C102.282 148.424 102.801 145.009 103.197 142.47C103.395 141.303 103.548 140.343 103.67 139.626C103.711 139.283 103.782 138.943 103.883 138.612C103.884 138.96 103.853 139.307 103.792 139.649C103.7 140.366 103.586 141.326 103.433 142.508C103.09 145.009 102.61 148.432 102.061 152.419L101.771 152.236L106.78 148.729L111.72 145.291L112.079 145.039L112.018 145.474C111.431 149.453 110.92 152.899 110.554 155.384C110.363 156.566 110.211 157.534 110.096 158.251C110.052 158.613 109.976 158.97 109.868 159.318Z"
        fill="#E0E0E0" />
    <path
        d="M138.563 162.406C138.288 162.187 138.033 161.945 137.8 161.682C137.305 161.148 136.634 160.439 135.811 159.57L129.003 152.191L129.331 152.076C129.17 153.944 129.003 155.972 128.827 158.076C128.652 160.18 128.469 162.269 128.309 164.175L128.271 164.617L127.981 164.289L121.356 156.818L119.466 154.638C119.225 154.388 119.01 154.115 118.825 153.822C119.099 154.055 119.354 154.31 119.588 154.584L121.554 156.688L128.278 164.061L127.951 164.175C128.111 162.277 128.279 160.218 128.461 158.076C128.644 155.934 128.812 153.944 128.972 152.076L129.01 151.642L129.3 151.962L136.009 159.441L137.922 161.629C138.156 161.871 138.37 162.131 138.563 162.406Z"
        fill="#E0E0E0" />
    <path
        d="M153.002 161.385C152.86 161.706 152.686 162.013 152.484 162.3L150.959 164.754L145.516 173.201L145.333 172.912L151.249 171.89L157.271 170.876L157.706 170.8L157.5 171.128L151.935 179.407L150.257 181.801C150.071 182.094 149.862 182.372 149.632 182.632C149.783 182.32 149.956 182.019 150.151 181.732L151.675 179.293L157.126 170.907L157.317 171.196L151.294 172.241L145.355 173.247L144.921 173.316L145.165 172.957L150.722 164.571L152.354 162.17C152.554 161.896 152.77 161.633 153.002 161.385Z"
        fill="#E0E0E0" />
    <path
        d="M133.798 176.159C133.655 176.477 133.481 176.781 133.28 177.066L131.755 179.529L126.319 187.968L126.129 187.678L132.06 186.657L138.09 185.635L138.525 185.567L138.273 185.925L132.708 194.212L131.069 196.591C130.887 196.884 130.678 197.16 130.444 197.414C130.596 197.103 130.77 196.802 130.962 196.514C131.359 195.904 131.877 195.089 132.487 194.082L137.938 185.696L138.128 185.986L132.106 187.03L126.167 188.029L125.732 188.105L125.976 187.739L131.534 179.353C132.205 178.362 132.754 177.554 133.173 176.952C133.362 176.673 133.571 176.408 133.798 176.159Z"
        fill="#E0E0E0" />
    <path
        d="M175.294 161.217C175.143 161.531 174.969 161.834 174.775 162.124L173.251 164.586L167.815 173.026L167.624 172.736L173.556 171.715L179.586 170.693L180.02 170.624L179.776 170.983L174.204 179.27C173.533 180.245 172.984 181.046 172.564 181.641C172.384 181.937 172.175 182.216 171.939 182.471C172.093 182.16 172.269 181.859 172.465 181.572L173.99 179.14L179.441 170.754L179.632 171.044L173.609 172.08L167.67 173.087L167.243 173.163L167.479 172.797L173.037 164.411L174.676 162.01C174.856 161.726 175.063 161.46 175.294 161.217Z"
        fill="#E0E0E0" />
    <path
        d="M199.232 199.594C198.959 199.386 198.704 199.157 198.469 198.908L196.38 196.895L189.207 189.866L189.527 189.736C189.466 191.612 189.405 193.64 189.336 195.752C189.268 197.863 189.184 199.96 189.115 201.85V202.293L188.803 201.98L181.819 194.852L179.822 192.771C179.574 192.535 179.344 192.28 179.136 192.008C179.407 192.217 179.662 192.446 179.898 192.694L181.972 194.699L189.062 201.728L188.734 201.858C188.795 199.952 188.864 197.894 188.932 195.759C189.001 193.625 189.085 191.62 189.153 189.744V189.31L189.458 189.615L196.525 196.75L198.546 198.839C198.795 199.071 199.024 199.324 199.232 199.594Z"
        fill="#E0E0E0" />
    <path
        d="M78.1297 148.974C77.9805 149.289 77.8072 149.592 77.6113 149.881L76.0865 152.343L70.6509 160.79L70.4603 160.501L76.3915 159.471L82.4218 158.457L82.8563 158.381L82.6124 158.747L77.0395 167.026L75.408 169.405C75.2229 169.696 75.0137 169.972 74.7829 170.228C74.929 169.916 75.1025 169.618 75.3013 169.336L76.826 166.897C78.2059 164.785 80.0966 161.888 82.2769 158.511L82.4675 158.8L76.4448 159.845L70.506 160.851L70.0791 160.92L70.3154 160.562C72.5492 157.207 74.4703 154.31 75.8731 152.176L77.5121 149.774C77.6966 149.491 77.9031 149.224 78.1297 148.974Z"
        fill="#E0E0E0" />
    <path
        d="M47.9863 205.983C48.2432 206.215 48.478 206.47 48.6877 206.745L50.5479 208.979L56.8679 216.778L56.5324 216.87C56.8069 215.017 57.0966 213.004 57.4091 210.908C57.7217 208.811 58.0267 206.745 58.3087 204.862L58.3697 204.428L58.6442 204.778L64.7888 212.646L66.5346 214.933C66.7564 215.198 66.9554 215.481 67.1293 215.779C66.8789 215.543 66.647 215.288 66.4355 215.017L64.6059 212.791L58.3926 205.007L58.728 204.923C58.4536 206.806 58.1563 208.849 57.8437 210.969C57.5311 213.088 57.2338 215.07 56.9517 216.923L56.8907 217.357L56.6163 217.014L50.3954 209.132L48.6191 206.844C48.3891 206.572 48.1776 206.284 47.9863 205.983Z"
        fill="#E0E0E0" />
    <path
        d="M116.827 169.07C116.486 169.143 116.139 169.189 115.79 169.207L112.893 169.459L102.876 170.221L102.998 169.901L107.389 174.018L111.834 178.211L112.154 178.516H111.712L101.748 179.065L98.8659 179.187C98.521 179.217 98.1741 179.217 97.8291 179.187C98.1686 179.119 98.5125 179.075 98.8583 179.057L101.732 178.828L111.689 178.142L111.575 178.462L107.115 174.285L102.739 170.153L102.419 169.848H102.853L112.878 169.245L115.775 169.101C116.125 169.064 116.476 169.054 116.827 169.07Z"
        fill="#E0E0E0" />
    <path
        d="M99.9336 207.493C100.188 207.732 100.427 207.986 100.65 208.255L102.548 210.451L109.036 218.12L108.701 218.212C108.937 216.351 109.196 214.339 109.463 212.242C109.73 210.146 110.004 208.064 110.225 206.181L110.286 205.739L110.561 206.082L116.873 213.82L118.665 216.107C118.887 216.373 119.091 216.653 119.275 216.946C119.018 216.712 118.78 216.457 118.566 216.184L116.69 213.996L110.286 206.372L110.614 206.273C110.378 208.164 110.119 210.207 109.852 212.334C109.585 214.461 109.318 216.45 109.09 218.311L109.029 218.745L108.754 218.41L102.373 210.649L100.559 208.362C100.322 208.093 100.113 207.802 99.9336 207.493Z"
        fill="#E0E0E0" />
    <path
        d="M69.7362 179.315C69.395 179.39 69.0482 179.436 68.6993 179.452L65.81 179.696L55.7925 180.459L55.9069 180.131L60.3057 184.255L64.7503 188.448L65.0705 188.753H64.6283L54.6642 189.302L51.7825 189.424C51.4451 189.453 51.1059 189.453 50.7686 189.424C51.1072 189.351 51.4516 189.308 51.7977 189.294L54.6719 189.066L64.6283 188.372L64.514 188.7L60.0541 184.522L55.6706 180.39L55.358 180.085H55.7925L65.8176 179.475L68.7146 179.338C69.0541 179.305 69.3955 179.297 69.7362 179.315Z"
        fill="#E0E0E0" />
    <path
        d="M95.6797 206.631C95.3384 206.704 94.9916 206.747 94.6429 206.761L91.7459 207.013L81.7285 207.775L81.8505 207.447L86.2417 211.571L90.6863 215.764L91.0064 216.069H90.5719L80.6002 216.611L77.7185 216.74C77.3735 216.77 77.0266 216.77 76.6816 216.74C77.0203 216.667 77.3647 216.624 77.7108 216.611L80.5849 216.382L90.5414 215.688L90.4271 216.016L85.9672 211.838L81.5913 207.722L81.2711 207.424H81.7056L91.7307 206.814L94.6353 206.677C94.9813 206.63 95.3309 206.615 95.6797 206.631Z"
        fill="#E0E0E0" />
    <path
        d="M154.236 137.134C153.895 137.207 153.548 137.253 153.2 137.271L150.303 137.515L140.293 138.278L140.407 137.957L144.798 142.074L149.243 146.267L149.563 146.572H149.129L139.157 147.121L136.275 147.243C135.93 147.273 135.583 147.273 135.238 147.243C135.577 147.17 135.921 147.127 136.267 147.113L139.142 146.885L149.106 146.199L148.984 146.519L144.539 142.349L140.163 138.217L139.843 137.912H140.278L150.303 137.302L153.207 137.165C153.549 137.129 153.893 137.118 154.236 137.134Z"
        fill="#E0E0E0" />
    <path
        d="M125.755 206.632C125.755 206.632 138.578 202.934 142.824 201.852C144.478 201.432 151.561 205.168 156.455 208.278C156.455 208.278 163.194 212.273 162.653 213.501C162.051 214.858 159.604 214.583 155.601 212.738C155.601 212.738 156.989 216.756 154.267 216.664C154.267 216.664 155.617 221.01 153.07 221.46C150.524 221.909 149.929 216.367 147.688 216.07C145.447 215.772 140.827 215.468 140.827 215.468C140.827 215.468 136.961 221.871 133.965 222.329C130.969 222.786 124.055 221.97 124.055 221.97L125.755 206.632Z"
        fill="#FFBE9D" />
    <path
        d="M147.643 207.516C148.898 208.075 150.098 208.751 151.226 209.536C152.423 210.213 153.551 211.004 154.595 211.899C152.14 210.669 149.811 209.201 147.643 207.516Z"
        fill="#EB996E" />
    <path
        d="M146.888 210.008C148.352 210.469 149.775 211.053 151.142 211.754C152.554 212.328 153.916 213.019 155.213 213.82C153.747 213.364 152.324 212.782 150.959 212.081C149.544 211.51 148.182 210.817 146.888 210.008Z"
        fill="#EB996E" />
    <path
        d="M148.26 215.962C150.196 215.955 152.125 216.211 153.993 216.724C152.056 216.73 150.128 216.473 148.26 215.962Z"
        fill="#EB996E" />
    <path
        d="M109.067 74.3077C109.218 74.8017 109.22 75.3293 109.073 75.8245C108.926 76.3197 108.637 76.7608 108.241 77.0925C107.845 77.4242 107.36 77.632 106.847 77.6899C106.333 77.7479 105.814 77.6533 105.354 77.4182C103.616 76.5414 103.395 74.14 103.738 72.2265C104.081 70.3129 104.729 68.2622 103.929 66.4859C103.311 65.1289 101.977 64.2674 100.94 63.2001C100.025 62.2724 99.3377 61.1453 98.9317 59.9072C98.5256 58.6691 98.412 57.3538 98.5997 56.0644C98.8194 54.7788 99.3899 53.5789 100.248 52.5969C101.106 51.6149 102.219 50.889 103.464 50.4991C106.018 49.7901 109.166 50.5754 111.087 48.7228C112.467 47.3811 112.551 45.1931 113.618 43.5921C115.273 41.1068 118.772 40.7104 121.73 41.1144C124.688 41.5185 127.691 42.4714 130.588 41.7472C133.005 41.1449 134.987 39.4601 137.259 38.4233C139.735 37.2915 142.503 36.9618 145.176 37.4803C147.848 37.9988 150.292 39.3396 152.165 41.3153C154.038 43.2909 155.247 45.8025 155.623 48.4989C155.998 51.1954 155.522 53.9418 154.26 56.3541C153.418 58.1194 151.987 59.5352 150.212 60.3565"
        fill="#212121" />
    <path
        d="M123.781 137.286C125.725 137.283 127.649 136.893 129.441 136.14C131.234 135.387 132.859 134.286 134.222 132.9C135.586 131.515 136.661 129.872 137.385 128.068C138.109 126.264 138.468 124.334 138.441 122.39L138.25 108.378C138.25 108.378 150.021 107.196 150.799 95.5319C151.577 83.8677 151.02 56.9487 151.02 56.9487C144.543 53.7356 137.327 52.308 130.114 52.8132C122.902 53.3185 115.955 55.7381 109.99 59.8228L108.19 61.0654L109.067 122.771C109.113 126.641 110.685 130.336 113.44 133.054C116.195 135.772 119.911 137.293 123.781 137.286Z"
        fill="#FFBE9D" />
    <path
        d="M147.94 78.1188C147.514 78.0698 147.121 77.866 146.836 77.5462C146.551 77.2264 146.394 76.8129 146.394 76.3844C146.394 75.9559 146.551 75.5424 146.836 75.2226C147.121 74.9028 147.514 74.699 147.94 74.65C148.033 74.6271 148.129 74.6271 148.222 74.65C148.648 74.699 149.04 74.9028 149.326 75.2226C149.611 75.5424 149.768 75.9559 149.768 76.3844C149.768 76.8129 149.611 77.2264 149.326 77.5462C149.04 77.866 148.648 78.0698 148.222 78.1188C148.129 78.134 148.033 78.134 147.94 78.1188Z"
        fill="#212121" />
    <path
        d="M150.227 74.3528C150.036 74.551 148.939 73.5905 147.33 73.5066C145.721 73.4228 144.509 74.1775 144.349 73.964C144.189 73.7506 144.463 73.5142 144.997 73.1559C145.71 72.6984 146.551 72.4818 147.397 72.538C148.242 72.5943 149.047 72.9204 149.693 73.4685C150.174 73.8954 150.326 74.3071 150.227 74.3528Z"
        fill="#212121" />
    <path
        d="M131.633 74.7496C131.909 74.9411 132.123 75.2103 132.246 75.5232C132.37 75.8361 132.398 76.1787 132.326 76.5074C132.255 76.8362 132.088 77.1364 131.846 77.3702C131.604 77.6039 131.298 77.7605 130.967 77.8203C130.636 77.8801 130.295 77.8404 129.986 77.7061C129.678 77.5718 129.416 77.349 129.234 77.066C129.053 76.7829 128.959 76.4523 128.965 76.116C128.971 75.7796 129.077 75.4527 129.269 75.1765C129.526 74.8069 129.92 74.5544 130.363 74.4744C130.806 74.3943 131.262 74.4933 131.633 74.7496Z"
        fill="#212121" />
    <path
        d="M132.693 74.8187C132.494 75.0169 131.397 74.0563 129.796 73.9724C128.195 73.8886 126.975 74.6433 126.807 74.4299C126.723 74.3307 126.929 73.9801 127.455 73.6218C128.168 73.1642 129.009 72.9476 129.855 73.0039C130.7 73.0601 131.505 73.3863 132.151 73.9343C132.632 74.3612 132.784 74.7348 132.693 74.8187Z"
        fill="#212121" />
    <path
        d="M138.441 88.4339C138.441 88.3119 139.44 88.1594 141.071 88.0222C141.49 88.0222 141.833 87.9231 141.872 87.702C141.902 87.2817 141.821 86.8607 141.635 86.4822C141.277 85.3921 140.919 84.2942 140.537 83.1431C139.013 78.3936 138.014 74.4826 138.25 74.4064C138.487 74.3302 139.905 78.1191 141.407 82.8686C141.757 84.0274 142.1 85.1557 142.428 86.223C142.67 86.778 142.718 87.3983 142.565 87.9841C142.497 88.1423 142.393 88.2821 142.26 88.3921C142.128 88.5021 141.971 88.5791 141.803 88.6169C141.565 88.6699 141.321 88.6879 141.079 88.6702C139.432 88.6397 138.441 88.5635 138.441 88.4339Z"
        fill="#212121" />
    <path
        d="M133.104 89.9287C135.555 91.1866 138.166 92.1023 140.865 92.6503C140.273 93.4633 139.424 94.0519 138.455 94.3205C137.486 94.589 136.455 94.5217 135.529 94.1293C132.09 92.658 133.104 89.9287 133.104 89.9287Z"
        fill="white" />
    <path
        d="M138.296 108.21C132.899 108.018 127.682 106.224 123.308 103.057C123.308 103.057 126.449 111.648 138.151 111.237L138.296 108.21Z"
        fill="#EB996E" />
    <path
        d="M151.118 59.8985C151.118 59.8985 144.067 63.4816 134.728 59.0447C128.629 56.1324 121.485 54.783 119.945 56.0409C118.405 57.2988 118.2 63.5502 112.223 65.4943C112.223 65.4943 112.871 77.4329 108.098 77.0974C103.326 76.762 105.948 58.2137 105.948 58.2137L117.483 52.2977L130.146 49.6523L142.153 51.1085L151.469 53.4642L151.118 59.8985Z"
        fill="#212121" />
    <path
        d="M108.968 73.2634C108.777 73.1643 101.078 70.4502 100.902 78.4474C100.727 86.4446 108.785 84.9733 108.8 84.7446C108.816 84.5158 108.968 73.2634 108.968 73.2634Z"
        fill="#FFBE9D" />
    <path
        d="M106.421 81.6567C106.421 81.6567 106.276 81.7558 106.04 81.855C105.705 81.991 105.33 81.991 104.995 81.855C104.157 81.5271 103.471 80.1701 103.471 78.7293C103.47 78.0424 103.618 77.3635 103.905 76.7395C103.987 76.4919 104.128 76.2676 104.315 76.0858C104.502 75.904 104.73 75.77 104.98 75.6951C105.141 75.6657 105.308 75.6892 105.455 75.762C105.602 75.8348 105.721 75.953 105.796 76.0991C105.895 76.3202 105.842 76.4803 105.88 76.4955C105.918 76.5108 106.055 76.3659 106.002 76.0381C105.96 75.8386 105.852 75.6589 105.697 75.5273C105.481 75.3577 105.208 75.2784 104.934 75.3063C104.604 75.3632 104.294 75.5038 104.034 75.7147C103.774 75.9256 103.572 76.1997 103.448 76.5108C103.096 77.1972 102.913 77.9578 102.914 78.7293C102.914 80.3379 103.722 81.8702 104.866 82.2285C105.08 82.2938 105.305 82.3112 105.526 82.2796C105.748 82.248 105.959 82.1681 106.146 82.0455C106.421 81.855 106.421 81.672 106.421 81.6567Z"
        fill="#EB996E" />
    <path
        d="M104.896 48.2345C105.809 47.9669 106.783 48.002 107.674 48.3346C108.564 48.6672 109.323 49.2794 109.837 50.0794C109.126 49.5411 108.359 49.081 107.55 48.7072C106.684 48.4579 105.795 48.2994 104.896 48.2345Z"
        fill="#212121" />
    <path
        d="M109.707 43.4473C109.852 43.4473 109.631 45.1321 109.906 47.1295C110.143 48.3303 110.519 49.4995 111.026 50.6135C111.026 50.6135 110.691 50.3314 110.355 49.7368C109.925 48.9454 109.641 48.0828 109.517 47.1905C109.295 45.9445 109.36 44.6642 109.707 43.4473Z"
        fill="#212121" />
    <path
        d="M142.558 70.4962C142.512 70.4047 142.855 70.1226 143.503 69.8634C145.223 69.1981 147.133 69.2172 148.84 69.9168C149.48 70.1912 149.823 70.4733 149.777 70.5648C149.678 70.7782 148.138 70.176 146.164 70.176C144.189 70.176 142.649 70.7325 142.558 70.4962Z"
        fill="#212121" />
    <path
        d="M124.718 68.8334C124.672 68.742 125.015 68.4675 125.663 68.2007C126.516 67.8709 127.425 67.7079 128.339 67.7204C129.258 67.7202 130.167 67.9016 131.015 68.254C131.655 68.5285 131.991 68.8106 131.953 68.9097C131.915 69.0088 130.314 68.5209 128.332 68.5132C126.349 68.5056 124.825 69.0469 124.718 68.8334Z"
        fill="#212121" />
    <path
        d="M141.178 71.7765C141.195 71.9336 141.195 72.0921 141.178 72.2492C141.178 72.5846 141.178 73.0115 141.216 73.5376C141.254 74.0636 141.216 74.7726 141.262 75.535C141.233 76.4148 141.362 77.2927 141.643 78.127C142.011 79.2093 142.647 80.1805 143.492 80.9499C144.338 81.7192 145.364 82.2615 146.476 82.5258C147.114 82.6817 147.773 82.7383 148.428 82.6935C149.11 82.6629 149.782 82.5213 150.418 82.2742C151.774 81.7661 152.929 80.8327 153.711 79.6136C154.451 78.4494 154.823 77.0891 154.779 75.7103C154.779 74.3457 154.779 73.0344 154.779 71.7765L154.961 71.9595L145.051 71.868L142.177 71.8146H141.414H141.132C141.459 71.7783 141.787 71.7631 142.116 71.7689L144.944 71.7155L154.961 71.624H155.213V71.8146C155.213 73.0725 155.213 74.3838 155.213 75.7484C155.264 77.2024 154.873 78.6377 154.092 79.8652C153.263 81.1559 152.038 82.143 150.601 82.6783C149.925 82.9377 149.212 83.0845 148.489 83.1128C147.8 83.1538 147.108 83.0895 146.438 82.9223C145.272 82.6404 144.198 82.0631 143.319 81.246C142.441 80.4289 141.787 79.3994 141.422 78.2566C141.148 77.3846 141.034 76.4703 141.086 75.5578C141.086 74.7955 141.086 74.0865 141.125 73.5071C141.163 72.9277 141.125 72.5694 141.163 72.2339C141.156 72.0813 141.161 71.9283 141.178 71.7765Z"
        fill="#212121" />
    <path
        d="M122.492 71.3804C122.492 71.3804 122.492 71.5557 122.492 71.8531V73.1415C122.492 73.7056 122.492 74.3765 122.53 75.1465C122.51 76.0258 122.639 76.9022 122.911 77.7385C123.262 78.7423 123.838 79.6525 124.596 80.3992C125.47 81.2491 126.558 81.847 127.744 82.1297C129.056 82.4458 130.432 82.3581 131.693 81.8781C133.046 81.3706 134.198 80.4401 134.979 79.2251C135.722 78.0617 136.096 76.7014 136.054 75.3218C136.054 73.9572 136.054 72.6383 136.054 71.3804L136.237 71.5634L126.326 71.4719L123.46 71.4261H122.697H122.415C122.739 71.39 123.065 71.3748 123.391 71.3804L126.22 71.3347L136.237 71.2432H136.42V71.4261C136.42 72.684 136.42 74.0029 136.42 75.3676C136.466 76.822 136.073 78.2566 135.292 79.4843C134.463 80.7706 133.241 81.7546 131.808 82.2898C131.132 82.5486 130.419 82.6954 129.696 82.7244C129.004 82.7651 128.31 82.7009 127.638 82.5338C126.392 82.227 125.253 81.5865 124.344 80.6812C123.558 79.8911 122.968 78.9276 122.621 77.8681C122.347 76.9961 122.234 76.0818 122.286 75.1693C122.286 74.407 122.286 73.698 122.331 73.1186C122.377 72.5392 122.331 72.1809 122.331 71.8454C122.359 71.6828 122.413 71.5257 122.492 71.3804Z"
        fill="#212121" />
    <path
        d="M141.345 72.3337C139.602 72.5982 137.828 72.5982 136.085 72.3337C137.828 72.0593 139.603 72.0593 141.345 72.3337Z"
        fill="#212121" />
    <path
        d="M107.946 72.4317C110.37 72.2296 112.803 72.1558 115.234 72.2106C117.668 72.1416 120.103 72.2001 122.53 72.386C120.107 72.5975 117.674 72.6713 115.242 72.6071C112.809 72.6848 110.373 72.6263 107.946 72.4317Z"
        fill="#212121" />
    <path
        d="M186.37 216.298C188.083 219.477 190.678 222.095 193.842 223.835C197.007 225.576 200.607 226.365 204.209 226.109C208.466 225.811 212.493 224.071 215.627 221.176C218.761 218.28 220.813 214.403 221.446 210.184L225.868 159.57L208.158 155.194L200.924 194.837C200.924 194.837 197.142 211.449 186.37 216.298Z"
        fill="#FFBE9D" />
    <path
        d="M207.999 158.861L208.586 149.98C208.586 149.98 211.094 130.052 211.094 128.1C211.094 125.859 212.169 125.31 213 125.371C214.289 125.455 215.203 127.048 215.287 128.977C215.287 129.64 215.226 140.176 215.226 140.176C215.835 139.18 216.516 138.23 217.262 137.332C218.786 135.358 222.476 134.229 226.235 134.351C229.993 134.473 231.022 134.839 231.045 136.295C231.032 136.574 230.957 136.845 230.825 137.091C230.693 137.336 230.508 137.549 230.283 137.713C229.589 138.292 228.708 138.595 227.805 138.567C221.79 138.46 220.182 141.67 220.182 141.67L220.105 142.836C220.105 142.836 223.757 140.221 226.669 141.312C227.1 141.471 227.494 141.714 227.828 142.028C228.648 142.032 229.453 142.249 230.163 142.659C230.873 143.07 231.463 143.659 231.875 144.367C232.288 145.076 232.507 145.881 232.513 146.701C232.518 147.521 232.309 148.328 231.907 149.042C231.75 149.408 231.485 149.718 231.147 149.929C230.809 150.141 230.414 150.243 230.016 150.224C229.613 150.103 229.248 149.88 228.956 149.576C228.786 149.431 228.605 149.298 228.415 149.179L227.744 152.404C227.744 152.404 225.846 159.57 225.373 162.787"
        fill="#FFBE9D" />
    <path
        d="M209.729 158.168C210.827 158.473 211.963 157.664 212.557 156.689C213.152 155.713 213.404 154.562 213.922 153.54C215.492 150.491 219.258 149.042 220.699 145.916C220.898 145.482 221.004 144.887 220.623 144.598C220.242 144.308 219.769 144.544 219.38 144.758L209.47 150.247"
        fill="#FFBE9D" />
    <path
        d="M209.462 150.232C209.77 149.958 210.111 149.722 210.476 149.53C211.147 149.111 212.13 148.532 213.35 147.823L217.657 145.36L218.9 144.659C219.363 144.293 219.953 144.125 220.539 144.194C220.72 144.252 220.879 144.365 220.995 144.516C221.111 144.667 221.178 144.85 221.187 145.04C221.207 145.353 221.152 145.667 221.027 145.955C220.798 146.463 220.511 146.944 220.173 147.388C218.801 149.172 217.025 150.293 215.744 151.596C215.121 152.186 214.591 152.867 214.173 153.617C213.8 154.318 213.563 155.05 213.274 155.713C213.096 156.267 212.799 156.775 212.404 157.201C212.009 157.628 211.525 157.963 210.987 158.183C210.171 158.427 209.713 158.183 209.744 158.137C210.139 158.149 210.533 158.085 210.903 157.947C211.38 157.703 211.801 157.363 212.139 156.949C212.478 156.534 212.727 156.054 212.87 155.538C213.114 154.799 213.396 154.074 213.716 153.365C214.136 152.553 214.685 151.815 215.34 151.177C216.651 149.805 218.389 148.654 219.67 146.999C219.972 146.6 220.227 146.168 220.432 145.711C220.623 145.276 220.592 144.842 220.348 144.796C220.105 144.75 219.624 144.956 219.205 145.192L217.939 145.879L213.571 148.257C212.321 148.92 211.284 149.439 210.598 149.782C210.242 149.985 209.86 150.136 209.462 150.232Z"
        fill="#EB996E" />
    <path
        d="M219.968 142.92C220.035 142.199 220.273 141.504 220.662 140.892C221.113 140.265 221.755 139.8 222.491 139.566C223.414 139.263 224.379 139.108 225.35 139.108C226.347 139.118 227.343 139.032 228.324 138.849C229.145 138.682 229.907 138.3 230.534 137.744C230.743 137.551 230.905 137.314 231.008 137.05C231.111 136.786 231.152 136.502 231.129 136.219C231.118 136.011 231.049 135.811 230.931 135.64C230.893 135.64 230.931 135.861 230.969 136.227C230.965 136.482 230.906 136.734 230.796 136.964C230.685 137.195 230.526 137.398 230.329 137.561C229.719 138.04 229.002 138.365 228.24 138.506C227.28 138.664 226.308 138.735 225.335 138.72C224.328 138.709 223.325 138.866 222.369 139.185C221.57 139.463 220.886 139.999 220.425 140.709C220.127 141.187 219.954 141.733 219.922 142.295C219.879 142.504 219.895 142.72 219.968 142.92Z"
        fill="#EB996E" />
    <path
        d="M215.233 128.229C215.168 128.927 215.168 129.629 215.233 130.326C215.233 131.759 215.233 133.475 215.286 135.365C215.34 137.256 215.286 138.971 215.286 140.404C215.241 141.103 215.256 141.805 215.332 142.501C215.499 141.817 215.583 141.116 215.584 140.412C215.675 139.124 215.736 137.363 215.729 135.365C215.721 133.368 215.645 131.599 215.553 130.311C215.522 129.608 215.414 128.91 215.233 128.229Z"
        fill="#EB996E" />
    <path
        d="M222.346 145.261C222.559 145.21 222.764 145.13 222.956 145.025C223.204 144.898 223.477 144.825 223.756 144.812C224.034 144.799 224.313 144.845 224.572 144.948C224.731 145.035 224.866 145.161 224.962 145.315C225.058 145.468 225.113 145.644 225.121 145.825C225.145 146.28 225.112 146.736 225.022 147.182C224.896 147.743 224.986 148.331 225.273 148.829C225.456 149.085 225.696 149.294 225.974 149.44C226.252 149.585 226.56 149.663 226.874 149.667C227.183 149.665 227.488 149.601 227.771 149.478C228.054 149.354 228.309 149.175 228.521 148.951C228.919 148.552 229.185 148.041 229.283 147.487C229.403 146.59 229.39 145.681 229.245 144.788C229.166 144.184 228.983 143.599 228.704 143.058C228.491 142.677 228.292 142.532 228.277 142.547C228.262 142.562 228.399 142.753 228.559 143.126C228.768 143.674 228.899 144.249 228.948 144.834C229.048 145.694 229.035 146.562 228.91 147.418C228.813 147.903 228.561 148.344 228.193 148.674C227.825 149.003 227.359 149.205 226.867 149.248C226.619 149.247 226.375 149.187 226.154 149.075C225.933 148.962 225.741 148.8 225.594 148.6C225.363 148.182 225.29 147.695 225.388 147.228C225.473 146.747 225.493 146.258 225.449 145.772C225.427 145.54 225.345 145.317 225.211 145.126C225.078 144.935 224.897 144.782 224.686 144.682C224.39 144.569 224.071 144.528 223.755 144.562C223.44 144.597 223.137 144.706 222.872 144.88C222.514 145.093 222.3 145.208 222.346 145.261Z"
        fill="#EB996E" />
    <path
        d="M228.346 148.63C228.293 148.829 228.314 149.04 228.407 149.224C228.514 149.486 228.68 149.719 228.891 149.907C229.103 150.095 229.354 150.231 229.627 150.307C230.037 150.395 230.464 150.375 230.865 150.25C231.266 150.124 231.627 149.897 231.914 149.59C232.601 148.835 232.97 147.843 232.943 146.823C232.943 145.814 232.629 144.831 232.043 144.01C231.566 143.34 230.915 142.813 230.16 142.485C229.665 142.262 229.132 142.135 228.59 142.111C228.209 142.111 228.003 142.111 228.003 142.172C228.706 142.263 229.393 142.458 230.038 142.752C230.715 143.088 231.297 143.589 231.731 144.208C232.238 144.977 232.503 145.879 232.493 146.8C232.519 147.714 232.203 148.605 231.609 149.3C231.367 149.574 231.06 149.781 230.716 149.903C230.371 150.024 230.002 150.056 229.642 149.994C229.402 149.94 229.176 149.836 228.98 149.687C228.784 149.538 228.623 149.349 228.506 149.133C228.399 148.843 228.399 148.63 228.346 148.63Z"
        fill="#EB996E" />
    <path
        d="M221.103 155.675C220.776 155.571 220.424 155.571 220.097 155.675C219.239 155.863 218.467 156.329 217.901 157.001L218.252 157.108C218.206 156.636 218.129 156.168 218.023 155.705C217.72 154.066 216.968 152.544 215.851 151.307C216.597 152.737 217.19 154.242 217.619 155.797C217.726 156.27 217.802 156.727 217.856 157.154L217.917 157.627L218.214 157.253C218.72 156.63 219.395 156.167 220.158 155.919C220.73 155.744 221.103 155.728 221.103 155.675Z"
        fill="#EB996E" />
    <path
        d="M221.294 137.751C221.195 137.797 221.599 138.514 222.529 138.948C223.459 139.383 224.282 139.131 224.244 139.025C224.206 138.918 223.482 138.926 222.72 138.567C221.957 138.209 221.393 137.675 221.294 137.751Z"
        fill="#EB996E" />
    <path
        d="M204.949 164.609L227.202 166.203C227.202 166.203 223.779 205.579 223.116 211.685C222.453 217.792 218.542 227.001 204.949 227.001C191.356 227.001 188.825 222.374 182.779 212.844C189.907 207.904 201.228 193.152 201.228 193.152L204.949 164.609Z"
        fill="#246BFD" />
    <path
        d="M215.439 169.908C215.325 170.24 215.187 170.564 215.027 170.876L213.785 173.499L209.393 182.563L209.172 182.297L214.943 180.581L220.806 178.858L221.233 178.736L221.027 179.125L216.453 188.007L215.104 190.561C214.954 190.873 214.778 191.171 214.578 191.453C214.694 191.126 214.832 190.808 214.989 190.5C215.309 189.844 215.752 188.975 216.239 187.9L220.669 178.957L220.89 179.224L215.035 180.962L209.256 182.655L208.837 182.777L209.035 182.388L213.586 173.415C214.143 172.355 214.593 171.486 214.928 170.838C215.072 170.514 215.243 170.203 215.439 169.908Z"
        fill="#E0E0E0" />
    <path
        d="M213.335 207.782C212.994 207.855 212.647 207.901 212.298 207.919L209.401 208.171L199.384 208.933L199.506 208.605L203.897 212.722L208.342 216.915L208.662 217.22H208.22L198.255 217.769L195.374 217.891C195.029 217.921 194.682 217.921 194.337 217.891C194.676 217.824 195.02 217.783 195.366 217.769L198.24 217.533L208.197 216.847L208.082 217.174L203.622 212.989L199.247 208.857L198.926 208.56H199.361L209.386 207.957L212.291 207.812C212.637 207.776 212.987 207.766 213.335 207.782Z"
        fill="#E0E0E0" />
    <path
        d="M252.955 67.1184L230.26 58.9688L207.816 67.0117C204.949 68.3611 202.433 69.1768 202.433 71.8451V85.1559C202.38 94.505 204.933 103.684 209.805 111.663C214.674 119.716 221.888 126.087 230.481 129.922C239.629 126.941 246.49 118.982 250.722 112.182C255.607 104.206 258.173 95.0271 258.132 85.6743V73.7052C258.132 69.8934 256.104 68.0333 252.955 67.1184Z"
        fill="#246BFD" />
    <g opacity="0.3">
        <path
            d="M230.481 122.177C223.671 119.106 217.965 114.025 214.128 107.616C210.265 101.31 208.235 94.0532 208.266 86.6585V77.3577C208.266 75.2383 209.546 73.2562 212.077 72.0745L230.267 65.2742V59L207.816 67.0124C205.46 68.0416 202.433 69.1776 202.433 71.8458V85.1567C202.38 94.5058 204.933 103.685 209.805 111.664C214.674 119.716 221.888 126.088 230.481 129.923V122.177Z"
            fill="black" />
    </g>
    <g opacity="0.4">
        <path
            d="M230.481 129.899C232.02 129.396 233.513 128.759 234.94 127.993C238.451 126.007 241.643 123.504 244.409 120.568C246.91 117.874 249.111 114.917 250.973 111.747C255.916 103.713 258.404 94.4099 258.132 84.9808V73.9952C258.132 68.5214 255.311 68.1173 252.948 67.0881L230.252 58.9385V65.2127L248.655 72.1274C251.186 73.309 252.467 75.2912 252.467 77.4029V86.7419C252.498 94.1342 250.467 101.389 246.605 107.692C242.85 114.071 237.212 119.131 230.465 122.177L230.481 129.899Z"
            fill="black" />
    </g>
    <path d="M236.282 86.0633V84.2642C236.282 82.7012 235.661 81.2023 234.556 80.0971C233.451 78.992 231.952 78.3711 230.389 78.3711C228.826 78.3711 227.327 78.992 226.222 80.0971C225.117 81.2023 224.496 82.7012 224.496 84.2642V86.0938C223.716 86.2107 223.004 86.6035 222.489 87.2008C221.974 87.7982 221.691 88.5605 221.69 89.3491V99.946C221.69 100.819 222.037 101.657 222.655 102.275C223.273 102.892 224.11 103.239 224.984 103.239H236.023C236.896 103.239 237.734 102.892 238.352 102.275C238.969 101.657 239.316 100.819 239.316 99.946V89.3491C239.317 88.5201 239.005 87.7213 238.442 87.1122C237.88 86.5031 237.109 86.1286 236.282 86.0633ZM231.99 97.3006H229.108L229.558 95.2193C229.243 95.0139 229.002 94.7122 228.872 94.359C228.743 94.0059 228.73 93.6202 228.837 93.2595C228.945 92.8988 229.165 92.5824 229.467 92.3573C229.768 92.1323 230.135 92.0107 230.511 92.0107C230.887 92.0107 231.253 92.1323 231.555 92.3573C231.857 92.5824 232.077 92.8988 232.185 93.2595C232.292 93.6202 232.279 94.0059 232.15 94.359C232.02 94.7122 231.779 95.0139 231.464 95.2193C231.662 95.9969 231.99 97.3006 231.99 97.3006ZM235.039 86.0481H225.769V84.2642C225.818 83.0704 226.326 81.9416 227.188 81.114C228.05 80.2865 229.198 79.8244 230.393 79.8244C231.588 79.8244 232.736 80.2865 233.598 81.114C234.46 81.9416 234.968 83.0704 235.017 84.2642L235.039 86.0481Z"
        fill="white"
        opacity="0.5" />
    <path
        d="M211.948 85.934C211.75 85.3377 211.634 84.7169 211.605 84.0891C211.435 82.5885 211.374 81.0777 211.422 79.5683C211.422 78.684 211.506 77.8454 211.582 77.083C211.62 76.3877 211.793 75.7066 212.093 75.078C212.307 74.6473 212.655 74.2972 213.084 74.0793C213.397 73.9344 213.587 73.9421 213.587 73.9649C213.039 74.2161 212.599 74.6539 212.344 75.2C212.101 75.8095 211.967 76.4573 211.948 77.1135C211.887 77.8759 211.841 78.7068 211.818 79.5835C211.765 81.3294 211.818 82.9151 211.887 84.0663C211.956 84.6863 211.977 85.3108 211.948 85.934Z"
        fill="white" />
    <path
        d="M212.276 91.7196C212.169 91.7196 212.07 91.1784 212.055 90.4999C212.039 89.8214 212.123 89.2725 212.23 89.2725C212.337 89.2725 212.436 89.8137 212.451 90.4922C212.466 91.1707 212.39 91.7196 212.276 91.7196Z"
        fill="white" />
    <path d="M189.762 161.393L164.459 223.967H118.832V226.796H254.739L282.542 161.393H189.762Z"
        fill="#212121" />
    <path
        d="M228.445 198.337C227.53 201.485 224.862 203.475 222.483 202.789C220.105 202.103 218.923 198.977 219.838 195.829C220.753 192.68 223.429 190.69 225.807 191.377C228.186 192.063 229.367 195.188 228.445 198.337Z"
        fill="#FAFAFA" />
</svg>
