<svg fill="none" height="31" viewBox="0 0 26 31" width="26" xmlns="http://www.w3.org/2000/svg">
    <path
        d="M7.25727 29.1144L7.77916 25.7958L6.61553 25.7683H1.05957L4.92127 1.28965C4.93374 1.21542 4.97171 1.14786 5.02865 1.09862C5.08599 1.04941 5.15908 1.02239 5.23465 1.02246H14.5986C17.7087 1.02246 19.8549 1.6692 20.9761 2.94769C21.4715 3.49052 21.8227 4.14908 21.9974 4.86294C22.171 5.73377 22.1753 6.6299 22.0099 7.50233L21.9974 7.57974V8.25519L22.523 8.55234C22.9242 8.75569 23.2847 9.03074 23.5868 9.36389C24.0531 9.91343 24.3525 10.5849 24.4495 11.2991C24.5702 12.2357 24.528 13.1861 24.3247 14.1083C24.1262 15.2261 23.7368 16.3014 23.1735 17.2871C22.7118 18.0727 22.0909 18.7531 21.3507 19.2847C20.6071 19.801 19.7752 20.1763 18.8961 20.3921C17.8922 20.6394 16.861 20.7586 15.8272 20.7467H15.098C14.5758 20.7469 14.0708 20.9335 13.6739 21.273C13.277 21.6124 13.0143 22.0824 12.9331 22.5983L12.8782 22.8967L11.9542 28.7398L11.9118 28.9546C11.9094 29.002 11.8888 29.0467 11.8544 29.0794C11.8272 29.1016 11.7933 29.114 11.7582 29.1144H7.25727Z"
        fill="#253B80" />
    <path
        d="M23.0217 7.6582C22.9934 7.83716 22.9614 8.02028 22.9256 8.20756C21.6895 14.5513 17.4633 16.7425 12.0634 16.7425H9.31535C8.99653 16.7424 8.68819 16.8563 8.44613 17.0638C8.20406 17.2713 8.04427 17.5586 7.99565 17.8737L6.58856 26.7982L6.19028 29.3289C6.1744 29.4293 6.18046 29.5319 6.20804 29.6296C6.23563 29.7274 6.28408 29.8181 6.35005 29.8953C6.41603 29.9726 6.49797 30.0346 6.59023 30.0771C6.68249 30.1197 6.78287 30.1417 6.88446 30.1417H11.7537C12.0329 30.1416 12.3029 30.042 12.5153 29.8608C12.7276 29.6796 12.8684 29.4286 12.9124 29.1529L12.9598 28.9032L13.8775 23.0775L13.9362 22.7579C13.9793 22.4817 14.1198 22.2299 14.3323 22.0482C14.5447 21.8664 14.8152 21.7665 15.0948 21.7666H15.8239C20.5471 21.7666 24.2453 19.8488 25.3252 14.2991C25.7772 11.9806 25.5425 10.0454 24.3489 8.68075C23.9719 8.26255 23.5222 7.91611 23.0217 7.6582V7.6582Z"
        fill="#179BD7" />
    <path
        d="M21.7299 7.14277C21.541 7.08784 21.3466 7.0379 21.1469 6.99295C20.9471 6.948 20.739 6.90888 20.5226 6.87559C19.724 6.75314 18.917 6.69427 18.1092 6.69954H10.7603C10.4809 6.69951 10.2106 6.79941 9.99835 6.98121C9.7861 7.16301 9.64585 7.41472 9.60295 7.69088L8.04104 17.5842L7.99609 17.8739C8.04471 17.5588 8.2045 17.2715 8.44657 17.064C8.68863 16.8565 8.99697 16.7426 9.31579 16.7427H12.0626C17.4612 16.7427 21.6887 14.5503 22.9248 8.20777C22.9622 8.02049 22.9922 7.83321 23.0209 7.65841C22.6947 7.4875 22.3547 7.34425 22.0046 7.23017C21.9159 7.19896 21.8223 7.17149 21.7299 7.14277Z"
        fill="#222D65" />
    <path
        d="M10.2541 6.81448C10.4123 6.73866 10.5856 6.6994 10.761 6.69961H18.1036C18.9149 6.69422 19.7252 6.75351 20.527 6.8769C20.7384 6.91103 20.9465 6.95015 21.1513 6.99426C21.356 7.03838 21.5504 7.08832 21.7343 7.14409L22.0115 7.23024C22.3615 7.34475 22.7014 7.48799 23.0278 7.65848C23.2638 6.72425 23.271 5.74689 23.0489 4.80926C22.8268 3.87164 22.3819 3.0014 21.7518 2.27232C20.351 0.681698 17.8314 5.04723e-07 14.6077 5.04723e-07H5.24377C4.92452 -0.000276617 4.61568 0.113571 4.373 0.320998C4.13031 0.528425 3.96977 0.815767 3.92033 1.13117L0.00993455 25.867C-0.00827832 25.9819 -0.00139168 26.0994 0.0301207 26.2113C0.0616332 26.3233 0.117023 26.4271 0.192482 26.5156C0.26794 26.6041 0.361675 26.6752 0.467239 26.724C0.572803 26.7729 0.687691 26.7983 0.803999 26.7984H6.58844L8.04048 17.5843L9.60239 7.68969C9.63151 7.50176 9.70611 7.32378 9.81969 7.17125C9.93328 7.01871 10.0824 6.89624 10.2541 6.81448Z"
        fill="#253B80" />
</svg>
