<svg fill="none" height="73" viewBox="0 0 92 73" width="92" xmlns="http://www.w3.org/2000/svg">
    <g filter="url(#filter0_d_556_27508)">
        <path
            d="M71.9891 26.1048C71.9841 29.2844 71.0365 32.3911 69.2661 35.0323C67.4958 37.6735 64.9821 39.7305 62.0429 40.9433C59.1037 42.1561 55.8709 42.4703 52.7531 41.8461C49.6354 41.222 46.7727 39.6875 44.5269 37.4366C42.2811 35.1858 40.753 32.3196 40.1359 29.2005C39.5187 26.0814 39.8402 22.8493 41.0596 19.9128C42.279 16.9763 44.3417 14.4673 46.9868 12.7029C49.6319 10.9385 52.7408 9.99786 55.9204 10C58.0338 10.0012 60.1262 10.4187 62.0782 11.2288C64.0302 12.0389 65.8034 13.2256 67.2966 14.7212C68.7898 16.2167 69.9738 17.9918 70.7808 19.9451C71.5878 21.8983 72.002 23.9914 71.9999 26.1048H71.9891Z"
            fill="#F79F1A" />
        <path
            d="M52.159 26.1048C52.154 29.2844 51.2064 32.3911 49.4361 35.0323C47.6657 37.6735 45.152 39.7305 42.2128 40.9433C39.2736 42.1561 36.0408 42.4703 32.9231 41.8461C29.8053 41.222 26.9426 39.6875 24.6968 37.4366C22.451 35.1858 20.923 32.3196 20.3058 29.2005C19.6886 26.0814 20.0101 22.8493 21.2295 19.9128C22.4489 16.9763 24.5116 14.4673 27.1567 12.7029C29.8019 10.9385 32.9107 9.99786 36.0903 10C38.2037 10.0012 40.2962 10.4187 42.2481 11.2288C44.2001 12.0389 45.9733 13.2256 47.4665 14.7212C48.9598 16.2167 50.1437 17.9918 50.9507 19.9451C51.7577 21.8983 52.172 23.9914 52.1698 26.1048H52.159Z"
            fill="#EA001B" />
        <path
            d="M46.0009 13.4277C44.0821 14.9372 42.531 16.8624 41.4644 19.0585C40.3979 21.2545 39.8438 23.6639 39.8438 26.1052C39.8438 28.5466 40.3979 30.956 41.4644 33.152C42.531 35.3481 44.0821 37.2733 46.0009 38.7828C47.9224 37.2753 49.4756 35.3502 50.5427 33.1534C51.6098 30.9566 52.1628 28.5457 52.1598 26.1034C52.1631 23.6616 51.6101 21.2512 50.543 19.0549C49.4759 16.8586 47.9225 14.9342 46.0009 13.4277V13.4277Z"
            fill="#FF5F01" />
    </g>
    <defs>
        <filter color-interpolation-filters="sRGB" filterUnits="userSpaceOnUse" height="72.1592" id="filter0_d_556_27508" width="92"
            x="0" y="0">
            <feFlood flood-opacity="0" result="BackgroundImageFix" />
            <feColorMatrix in="SourceAlpha" result="hardAlpha"
                type="matrix" values="0 0 0 0 0 0 0 0 0 0 0 0 0 0 0 0 0 0 127 0" />
            <feOffset dy="10" />
            <feGaussianBlur stdDeviation="10" />
            <feColorMatrix type="matrix"
                values="0 0 0 0 0.917647 0 0 0 0 0 0 0 0 0 0.105882 0 0 0 0.15 0" />
            <feBlend in2="BackgroundImageFix" mode="normal" result="effect1_dropShadow_556_27508" />
            <feBlend in="SourceGraphic" in2="effect1_dropShadow_556_27508" mode="normal"
                result="shape" />
        </filter>
    </defs>
</svg>
