<svg width="25" height="25" viewBox="0 0 25 25" fill="none" xmlns="http://www.w3.org/2000/svg">
<path d="M12.6596 11.37C12.5596 11.36 12.4396 11.36 12.3296 11.37C9.94957 11.29 8.05957 9.34 8.05957 6.94C8.05957 4.49 10.0396 2.5 12.4996 2.5C14.9496 2.5 16.9396 4.49 16.9396 6.94C16.9296 9.34 15.0396 11.29 12.6596 11.37Z" stroke="#212121" stroke-width="1.5" stroke-linecap="round" stroke-linejoin="round"/>
<path d="M7.65973 15.06C5.23973 16.68 5.23973 19.32 7.65973 20.93C10.4097 22.77 14.9197 22.77 17.6697 20.93C20.0897 19.31 20.0897 16.67 17.6697 15.06C14.9297 13.23 10.4197 13.23 7.65973 15.06Z" stroke="#212121" stroke-width="1.5" stroke-linecap="round" stroke-linejoin="round"/>
</svg>
