<svg fill="none" height="50" viewBox="0 0 265 50" width="265" xmlns="http://www.w3.org/2000/svg">
    <path
        d="M15.5006 39.624C12.5886 39.624 9.79794 39.2427 7.12861 38.48C4.45928 37.6827 2.30994 36.66 0.680609 35.412L3.54061 29.068C5.10061 30.1773 6.93794 31.096 9.05261 31.824C11.2019 32.5173 13.3686 32.864 15.5526 32.864C17.2166 32.864 18.5513 32.708 19.5566 32.396C20.5966 32.0493 21.3593 31.5813 21.8446 30.992C22.3299 30.4027 22.5726 29.7267 22.5726 28.964C22.5726 27.9933 22.1913 27.2307 21.4286 26.676C20.6659 26.0867 19.6606 25.6187 18.4126 25.272C17.1646 24.8907 15.7779 24.544 14.2526 24.232C12.7619 23.8853 11.2539 23.4693 9.72861 22.984C8.23794 22.4987 6.86861 21.8747 5.62061 21.112C4.37261 20.3493 3.34994 19.344 2.55261 18.096C1.78994 16.848 1.40861 15.2533 1.40861 13.312C1.40861 11.232 1.96328 9.34267 3.07261 7.644C4.21661 5.91066 5.91528 4.54133 8.16861 3.536C10.4566 2.496 13.3166 1.976 16.7486 1.976C19.0366 1.976 21.2899 2.25333 23.5086 2.808C25.7273 3.328 27.6859 4.12533 29.3846 5.2L26.7846 11.596C25.0859 10.6253 23.3873 9.91467 21.6886 9.464C19.9899 8.97867 18.3259 8.736 16.6966 8.736C15.0673 8.736 13.7326 8.92667 12.6926 9.308C11.6526 9.68933 10.9073 10.192 10.4566 10.816C10.0059 11.4053 9.78061 12.0987 9.78061 12.896C9.78061 13.832 10.1619 14.5947 10.9246 15.184C11.6873 15.7387 12.6926 16.1893 13.9406 16.536C15.1886 16.8827 16.5579 17.2293 18.0486 17.576C19.5739 17.9227 21.0819 18.3213 22.5726 18.772C24.0979 19.2227 25.4846 19.8293 26.7326 20.592C27.9806 21.3547 28.9859 22.36 29.7486 23.608C30.5459 24.856 30.9446 26.4333 30.9446 28.34C30.9446 30.3853 30.3726 32.2573 29.2286 33.956C28.0846 35.6547 26.3686 37.024 24.0806 38.064C21.8273 39.104 18.9673 39.624 15.5006 39.624ZM53.1328 10.608C55.3514 10.608 57.3274 11.0587 59.0608 11.96C60.8288 12.8267 62.2154 14.1787 63.2208 16.016C64.2261 17.8187 64.7288 20.1413 64.7288 22.984V39H56.6168V24.232C56.6168 21.9787 56.1141 20.3147 55.1088 19.24C54.1381 18.1653 52.7514 17.628 50.9488 17.628C49.6661 17.628 48.5048 17.9053 47.4648 18.46C46.4594 18.98 45.6621 19.7947 45.0728 20.904C44.5181 22.0133 44.2408 23.4347 44.2408 25.168V39H36.1288V0.415998H44.2408V18.772L42.4208 16.432C43.4261 14.56 44.8648 13.1213 46.7368 12.116C48.6088 11.1107 50.7408 10.608 53.1328 10.608ZM85.597 39.416C82.6157 39.416 79.9637 38.792 77.641 37.544C75.353 36.296 73.533 34.5973 72.181 32.448C70.8637 30.264 70.205 27.7853 70.205 25.012C70.205 22.204 70.8637 19.7253 72.181 17.576C73.533 15.392 75.353 13.6933 77.641 12.48C79.9637 11.232 82.6157 10.608 85.597 10.608C88.5437 10.608 91.1783 11.232 93.501 12.48C95.8237 13.6933 97.6437 15.3747 98.961 17.524C100.278 19.6733 100.937 22.1693 100.937 25.012C100.937 27.7853 100.278 30.264 98.961 32.448C97.6437 34.5973 95.8237 36.296 93.501 37.544C91.1783 38.792 88.5437 39.416 85.597 39.416ZM85.597 32.76C86.949 32.76 88.1623 32.448 89.237 31.824C90.3117 31.2 91.161 30.316 91.785 29.172C92.409 27.9933 92.721 26.6067 92.721 25.012C92.721 23.3827 92.409 21.996 91.785 20.852C91.161 19.708 90.3117 18.824 89.237 18.2C88.1623 17.576 86.949 17.264 85.597 17.264C84.245 17.264 83.0317 17.576 81.957 18.2C80.8823 18.824 80.0157 19.708 79.357 20.852C78.733 21.996 78.421 23.3827 78.421 25.012C78.421 26.6067 78.733 27.9933 79.357 29.172C80.0157 30.316 80.8823 31.2 81.957 31.824C83.0317 32.448 84.245 32.76 85.597 32.76ZM122.895 39.416C120.538 39.416 118.475 38.896 116.707 37.856C114.939 36.816 113.553 35.2387 112.547 33.124C111.577 30.9747 111.091 28.2707 111.091 25.012C111.091 21.7187 111.559 19.0147 112.495 16.9C113.431 14.7853 114.783 13.208 116.551 12.168C118.319 11.128 120.434 10.608 122.895 10.608C125.53 10.608 127.887 11.2147 129.967 12.428C132.082 13.6067 133.746 15.2707 134.959 17.42C136.207 19.5693 136.831 22.1 136.831 25.012C136.831 27.9587 136.207 30.5067 134.959 32.656C133.746 34.8053 132.082 36.4693 129.967 37.648C127.887 38.8267 125.53 39.416 122.895 39.416ZM106.359 49.088V11.024H114.107V16.744L113.951 25.064L114.471 33.332V49.088H106.359ZM121.491 32.76C122.843 32.76 124.039 32.448 125.079 31.824C126.154 31.2 127.003 30.316 127.627 29.172C128.286 27.9933 128.615 26.6067 128.615 25.012C128.615 23.3827 128.286 21.996 127.627 20.852C127.003 19.708 126.154 18.824 125.079 18.2C124.039 17.576 122.843 17.264 121.491 17.264C120.139 17.264 118.926 17.576 117.851 18.2C116.777 18.824 115.927 19.708 115.303 20.852C114.679 21.996 114.367 23.3827 114.367 25.012C114.367 26.6067 114.679 27.9933 115.303 29.172C115.927 30.316 116.777 31.2 117.851 31.824C118.926 32.448 120.139 32.76 121.491 32.76Z"
        fill="#1D55F3" />
    <path
        d="M150.582 17.264H168.106V23.816H150.582V17.264ZM151.206 32.24H171.018V39H142.834V2.6H170.342V9.36H151.206V32.24ZM194.156 39V33.54L193.636 32.344V22.568C193.636 20.8347 193.099 19.4827 192.024 18.512C190.984 17.5413 189.372 17.056 187.188 17.056C185.697 17.056 184.224 17.2987 182.768 17.784C181.347 18.2347 180.133 18.8587 179.128 19.656L176.216 13.988C177.741 12.9133 179.579 12.0813 181.728 11.492C183.877 10.9027 186.061 10.608 188.28 10.608C192.544 10.608 195.855 11.6133 198.212 13.624C200.569 15.6347 201.748 18.772 201.748 23.036V39H194.156ZM185.628 39.416C183.444 39.416 181.572 39.052 180.012 38.324C178.452 37.5613 177.256 36.5387 176.424 35.256C175.592 33.9733 175.176 32.5347 175.176 30.94C175.176 29.276 175.575 27.82 176.372 26.572C177.204 25.324 178.504 24.3533 180.272 23.66C182.04 22.932 184.345 22.568 187.188 22.568H194.624V27.3H188.072C186.165 27.3 184.848 27.612 184.12 28.236C183.427 28.86 183.08 29.64 183.08 30.576C183.08 31.616 183.479 32.448 184.276 33.072C185.108 33.6613 186.235 33.956 187.656 33.956C189.008 33.956 190.221 33.644 191.296 33.02C192.371 32.3613 193.151 31.408 193.636 30.16L194.884 33.904C194.295 35.7067 193.22 37.076 191.66 38.012C190.1 38.948 188.089 39.416 185.628 39.416ZM218.502 39.416C216.11 39.416 213.804 39.1387 211.586 38.584C209.402 37.9947 207.668 37.2667 206.386 36.4L209.09 30.576C210.372 31.3733 211.88 32.032 213.614 32.552C215.382 33.0373 217.115 33.28 218.814 33.28C220.686 33.28 222.003 33.0547 222.766 32.604C223.563 32.1533 223.962 31.5293 223.962 30.732C223.962 30.0733 223.65 29.588 223.026 29.276C222.436 28.9293 221.639 28.6693 220.634 28.496C219.628 28.3227 218.519 28.1493 217.306 27.976C216.127 27.8027 214.931 27.5773 213.718 27.3C212.504 26.988 211.395 26.5373 210.39 25.948C209.384 25.3587 208.57 24.5613 207.946 23.556C207.356 22.5507 207.062 21.2507 207.062 19.656C207.062 17.888 207.564 16.328 208.57 14.976C209.61 13.624 211.1 12.5667 213.042 11.804C214.983 11.0067 217.306 10.608 220.01 10.608C221.916 10.608 223.858 10.816 225.834 11.232C227.81 11.648 229.456 12.2547 230.774 13.052L228.07 18.824C226.718 18.0267 225.348 17.4893 223.962 17.212C222.61 16.9 221.292 16.744 220.01 16.744C218.207 16.744 216.89 16.9867 216.058 17.472C215.226 17.9573 214.81 18.5813 214.81 19.344C214.81 20.0373 215.104 20.5573 215.694 20.904C216.318 21.2507 217.132 21.528 218.138 21.736C219.143 21.944 220.235 22.1347 221.414 22.308C222.627 22.4467 223.84 22.672 225.054 22.984C226.267 23.296 227.359 23.7467 228.33 24.336C229.335 24.8907 230.15 25.6707 230.774 26.676C231.398 27.6467 231.71 28.9293 231.71 30.524C231.71 32.2573 231.19 33.8 230.15 35.152C229.11 36.4693 227.602 37.5093 225.626 38.272C223.684 39.0347 221.31 39.416 218.502 39.416ZM250.599 39.416C247.409 39.416 244.601 38.792 242.175 37.544C239.783 36.296 237.928 34.5973 236.611 32.448C235.293 30.264 234.635 27.7853 234.635 25.012C234.635 22.204 235.276 19.7253 236.559 17.576C237.876 15.392 239.661 13.6933 241.915 12.48C244.168 11.232 246.716 10.608 249.559 10.608C252.297 10.608 254.759 11.1973 256.943 12.376C259.161 13.52 260.912 15.184 262.195 17.368C263.477 19.5173 264.119 22.1 264.119 25.116C264.119 25.428 264.101 25.792 264.067 26.208C264.032 26.5893 263.997 26.9533 263.963 27.3H241.239V22.568H259.699L256.579 23.972C256.579 22.516 256.284 21.2507 255.695 20.176C255.105 19.1013 254.291 18.2693 253.251 17.68C252.211 17.056 250.997 16.744 249.611 16.744C248.224 16.744 246.993 17.056 245.919 17.68C244.879 18.2693 244.064 19.1187 243.475 20.228C242.885 21.3027 242.591 22.5853 242.591 24.076V25.324C242.591 26.8493 242.92 28.2013 243.579 29.38C244.272 30.524 245.225 31.408 246.439 32.032C247.687 32.6213 249.143 32.916 250.807 32.916C252.297 32.916 253.597 32.6907 254.707 32.24C255.851 31.7893 256.891 31.1133 257.827 30.212L262.143 34.892C260.86 36.348 259.248 37.4747 257.307 38.272C255.365 39.0347 253.129 39.416 250.599 39.416Z"
        fill="#121212" />
</svg>
