<svg fill="none" height="19" viewBox="0 0 18 19" width="18" xmlns="http://www.w3.org/2000/svg">
    <path
        d="M8.23508 5.1425L5.45258 2.36C5.40008 2.3075 5.33258 2.2625 5.25758 2.2325C5.25008 2.2325 5.24258 2.2325 5.23508 2.225C5.17508 2.2025 5.11508 2.1875 5.04758 2.1875C4.89758 2.1875 4.75508 2.2475 4.65008 2.3525L1.85258 5.1425C1.63508 5.36 1.63508 5.72 1.85258 5.9375C2.07008 6.155 2.43008 6.155 2.64758 5.9375L4.48508 4.1V16.25C4.48508 16.5575 4.74008 16.8125 5.04758 16.8125C5.35508 16.8125 5.61008 16.5575 5.61008 16.25V4.1075L7.44008 5.9375C7.55258 6.05 7.69508 6.1025 7.83758 6.1025C7.98008 6.1025 8.12258 6.05 8.23508 5.9375C8.45258 5.72 8.45258 5.3675 8.23508 5.1425Z"
        fill="#212121" />
    <path
        d="M16.1477 13.0625C15.9302 12.845 15.5702 12.845 15.3527 13.0625L13.5152 14.9V2.75C13.5152 2.4425 13.2602 2.1875 12.9527 2.1875C12.6452 2.1875 12.3902 2.4425 12.3902 2.75V14.8925L10.5602 13.0625C10.3427 12.845 9.98268 12.845 9.76518 13.0625C9.54768 13.28 9.54768 13.64 9.76518 13.8575L12.5477 16.64C12.6002 16.6925 12.6677 16.7375 12.7427 16.7675C12.7502 16.7675 12.7577 16.7675 12.7652 16.775C12.8252 16.7975 12.8927 16.8125 12.9602 16.8125C13.1102 16.8125 13.2527 16.7525 13.3577 16.6475L16.1477 13.8575C16.3652 13.6325 16.3652 13.28 16.1477 13.0625Z"
        fill="#212121" />
</svg>
