<svg width="764" height="764" viewBox="0 0 764 764" fill="none" xmlns="http://www.w3.org/2000/svg">
<g clip-path="url(#clip0_1_2)">
<path d="M382 603.5C504.331 603.5 603.5 504.331 603.5 382C603.5 259.669 504.331 160.5 382 160.5C259.669 160.5 160.5 259.669 160.5 382C160.5 504.331 259.669 603.5 382 603.5Z" stroke="#E0E0E0"/>
<path opacity="0.5" d="M382 683.5C548.514 683.5 683.5 548.514 683.5 382C683.5 215.486 548.514 80.5 382 80.5C215.486 80.5 80.5 215.486 80.5 382C80.5 548.514 215.486 683.5 382 683.5Z" stroke="#E0E0E0"/>
<path opacity="0.5" d="M382 763.5C592.697 763.5 763.5 592.697 763.5 382C763.5 171.303 592.697 0.5 382 0.5C171.303 0.5 0.5 171.303 0.5 382C0.5 592.697 171.303 763.5 382 763.5Z" stroke="#E0E0E0"/>
<path d="M507 207.77C511.418 207.77 515 204.188 515 199.77C515 195.352 511.418 191.77 507 191.77C502.582 191.77 499 195.352 499 199.77C499 204.188 502.582 207.77 507 207.77Z" fill="url(#paint0_linear_1_2)"/>
<path d="M279 104.77C282.314 104.77 285 102.084 285 98.77C285 95.4563 282.314 92.77 279 92.77C275.686 92.77 273 95.4563 273 98.77C273 102.084 275.686 104.77 279 104.77Z" fill="url(#paint1_linear_1_2)"/>
<path d="M507 661.77C510.314 661.77 513 659.084 513 655.77C513 652.456 510.314 649.77 507 649.77C503.686 649.77 501 652.456 501 655.77C501 659.084 503.686 661.77 507 661.77Z" fill="url(#paint2_linear_1_2)"/>
<path d="M261 578.77C267.627 578.77 273 573.397 273 566.77C273 560.143 267.627 554.77 261 554.77C254.373 554.77 249 560.143 249 566.77C249 573.397 254.373 578.77 261 578.77Z" fill="url(#paint3_linear_1_2)"/>
</g>
<defs>
<linearGradient id="paint0_linear_1_2" x1="500.09" y1="190.93" x2="512.59" y2="206.93" gradientUnits="userSpaceOnUse">
<stop stop-color="#FFE2BC"/>
<stop offset="1" stop-color="#FF965C"/>
</linearGradient>
<linearGradient id="paint1_linear_1_2" x1="273.82" y1="92.14" x2="283.19" y2="104.14" gradientUnits="userSpaceOnUse">
<stop stop-color="#E8CDFF"/>
<stop offset="1" stop-color="#FFB8BD"/>
</linearGradient>
<linearGradient id="paint2_linear_1_2" x1="501.82" y1="649.14" x2="511.19" y2="661.14" gradientUnits="userSpaceOnUse">
<stop stop-color="#E8CDFF"/>
<stop offset="1" stop-color="#FFB8BD"/>
</linearGradient>
<linearGradient id="paint3_linear_1_2" x1="250.63" y1="553.5" x2="269.38" y2="577.5" gradientUnits="userSpaceOnUse">
<stop stop-color="#C3DBFF"/>
<stop offset="1" stop-color="#A887EA"/>
</linearGradient>
<clipPath id="clip0_1_2">
<rect width="764" height="764" fill="white"/>
</clipPath>
</defs>
</svg>
