<svg fill="none" height="21" viewBox="0 0 21 21" width="21" xmlns="http://www.w3.org/2000/svg">
    <path
        d="M11.7355 1.31037C11.1351 0.452531 9.86461 0.452533 9.26414 1.31037L7.83477 3.3524C7.72145 3.51429 7.52458 3.59584 7.32997 3.5615L4.87532 3.12828C3.84414 2.94629 2.9458 3.84463 3.12779 4.87581L3.56101 7.33046C3.59535 7.52507 3.5138 7.72194 3.35191 7.83526L1.30989 9.26463C0.452043 9.8651 0.452043 11.1355 1.30989 11.736L3.35191 13.1654C3.5138 13.2787 3.59535 13.4756 3.56101 13.6702L3.12779 16.1248C2.9458 17.156 3.84414 18.0544 4.87533 17.8724L7.32997 17.4392C7.52458 17.4048 7.72145 17.4864 7.83477 17.6482L9.26414 19.6903C9.86461 20.5481 11.1351 20.5481 11.7355 19.6903L13.1649 17.6482C13.2782 17.4864 13.4751 17.4048 13.6697 17.4392L16.1243 17.8724C17.1555 18.0544 18.0539 17.156 17.8719 16.1248L17.4387 13.6702C17.4043 13.4756 17.4859 13.2787 17.6478 13.1654L19.6898 11.736C20.5476 11.1355 20.5476 9.8651 19.6898 9.26463L17.6478 7.83526C17.4859 7.72194 17.4043 7.52507 17.4387 7.33046L17.8719 4.87581C18.0539 3.84463 17.1555 2.94629 16.1243 3.12828L13.6697 3.5615C13.4751 3.59584 13.2782 3.51429 13.1649 3.3524L11.7355 1.31037Z"
        fill="#256EE8" stroke="white" />
    <path
        d="M6.7666 10.5002L9.02578 12.7594C9.06615 12.7997 9.13207 12.7982 9.17048 12.7559L13.7666 7.7002"
        stroke="white" stroke-linecap="round" stroke-width="1.5" />
</svg>
