<svg fill="none" height="164" viewBox="0 0 177 164" width="177" xmlns="http://www.w3.org/2000/svg">
    <path
        d="M26.0666 151.674C60.5486 168.107 116.452 168.112 150.934 151.674C185.416 135.236 185.411 108.595 150.934 92.1625C116.457 75.7297 60.5486 75.7297 26.0666 92.1625C-8.41533 108.595 -8.41033 135.241 26.0666 151.674Z"
        fill="#F5F5F5" />
    <path
        d="M150.814 139.529C157.165 139.529 162.313 137.076 162.313 134.05C162.313 131.023 157.165 128.57 150.814 128.57C144.464 128.57 139.315 131.023 139.315 134.05C139.315 137.076 144.464 139.529 150.814 139.529Z"
        fill="#EBEBEB" />
    <path
        d="M23.4492 134.836L27.5174 132.489C29.7888 130.636 31.5176 128.203 32.5213 125.449C33.7773 121.986 33.6022 119.354 32.7015 118.033C31.5956 116.407 28.7283 116.692 28.6133 120.114C28.3731 126.86 26.4065 131.538 23.4492 134.836Z"
        fill="url(#paint0_linear_555_63616)" />
    <path d="M23.4492 134.836L27.5174 132.489C29.7888 130.636 31.5176 128.203 32.5213 125.449C33.7773 121.986 33.6022 119.354 32.7015 118.033C31.5956 116.407 28.7283 116.692 28.6133 120.114C28.3731 126.86 26.4065 131.538 23.4492 134.836Z"
        fill="black"
        opacity="0.2" />
    <path
        d="M23.4493 135.085C23.3963 135.084 23.3449 135.067 23.3025 135.035C23.26 135.004 23.2288 134.959 23.2132 134.908C23.1976 134.858 23.1985 134.804 23.2158 134.753C23.233 134.703 23.2657 134.66 23.3092 134.63C32.7165 128.125 30.8951 119.053 30.8751 118.962C30.8682 118.93 30.8678 118.896 30.874 118.863C30.8802 118.83 30.8929 118.798 30.9112 118.77C30.9296 118.742 30.9533 118.718 30.981 118.699C31.0087 118.68 31.0399 118.667 31.0727 118.66C31.1056 118.653 31.1395 118.652 31.1725 118.659C31.2055 118.665 31.2369 118.678 31.265 118.696C31.2931 118.714 31.3174 118.738 31.3363 118.766C31.3553 118.793 31.3686 118.825 31.3755 118.857C31.3755 118.952 33.297 128.335 23.6094 135.04C23.5624 135.072 23.5061 135.088 23.4493 135.085Z"
        fill="white" />
    <path
        d="M15.2977 139.544C15.2977 139.544 13.8816 138.394 14.2219 136.832C14.5622 135.271 15.4779 134.15 13.9117 132.139C12.3454 130.127 11.9101 127.445 13.7815 125.994C15.2077 124.868 17.4344 126.459 18.235 123.492C18.8255 121.32 18.6253 116.511 21.3925 114.91C24.1597 113.309 25.896 115.721 25.4607 118.983C25.0804 121.901 24.54 124.708 24.9603 125.488C25.7709 126.99 27.157 126.784 27.0919 129.527C27.0369 132.079 24.62 134.19 24.62 134.19L15.2977 139.544Z"
        fill="url(#paint1_linear_555_63616)" />
    <path
        d="M19.9465 137.098C19.8853 137.097 19.8264 137.075 19.7805 137.034C19.7346 136.994 19.7047 136.938 19.6963 136.878C18.9807 130.948 20.6971 120.71 22.0982 117.668C22.11 117.634 22.1289 117.603 22.1536 117.577C22.1783 117.551 22.2082 117.531 22.2414 117.518C22.2746 117.505 22.3103 117.499 22.346 117.5C22.3817 117.502 22.4166 117.511 22.4484 117.528C22.4783 117.541 22.5052 117.56 22.5275 117.584C22.5498 117.608 22.567 117.637 22.5782 117.667C22.5894 117.698 22.5943 117.731 22.5926 117.764C22.591 117.796 22.5828 117.828 22.5685 117.858C21.1825 120.86 19.5262 131.128 20.2117 136.798C20.2187 136.863 20.1995 136.929 20.1583 136.981C20.1171 137.032 20.0571 137.065 19.9915 137.073L19.9465 137.098Z"
        fill="white" />
    <path
        d="M19.8115 132.479C19.7732 132.481 19.7352 132.473 19.7014 132.454C17.9651 131.609 16.8642 128.591 16.8192 128.451C16.8069 128.42 16.801 128.387 16.8018 128.353C16.8026 128.32 16.8102 128.287 16.8239 128.257C16.8377 128.226 16.8574 128.199 16.882 128.176C16.9065 128.153 16.9354 128.136 16.9669 128.124C16.9983 128.113 17.0317 128.108 17.0651 128.11C17.0985 128.111 17.1313 128.12 17.1613 128.135C17.1914 128.149 17.2183 128.17 17.2403 128.195C17.2623 128.22 17.2791 128.249 17.2895 128.281C17.2895 128.311 18.3654 131.233 19.9216 131.989C19.9726 132.014 20.0138 132.055 20.0383 132.106C20.0627 132.157 20.0691 132.215 20.0563 132.271C20.0435 132.326 20.0123 132.375 19.9678 132.41C19.9234 132.446 19.8682 132.465 19.8115 132.464V132.479Z"
        fill="white" />
    <path
        d="M19.7809 134.48C19.7308 134.48 19.6818 134.464 19.6407 134.436C19.5995 134.407 19.5681 134.366 19.5507 134.319C19.5258 134.258 19.5261 134.19 19.5514 134.129C19.5767 134.068 19.625 134.02 19.6858 133.994C22.6081 132.823 24.4296 129.346 24.4496 129.305C24.4801 129.246 24.5328 129.202 24.5962 129.182C24.6595 129.162 24.7283 129.167 24.7873 129.198C24.8464 129.228 24.8909 129.281 24.9111 129.345C24.9313 129.408 24.9254 129.477 24.8949 129.536C24.8149 129.686 22.9684 133.219 19.891 134.46C19.8567 134.476 19.8187 134.483 19.7809 134.48Z"
        fill="white" />
    <path
        d="M121.926 107.559C121.926 107.559 119.739 104.016 119.524 100.168C119.309 96.3203 120.154 94.719 121.315 94.2587C122.476 93.7983 122.566 95.2144 123.162 96.0501C123.757 96.8857 124.973 96.4104 125.423 93.8033C125.874 91.1963 127.515 86.7979 130.928 85.9422C134.681 85.0115 132.669 89.4149 131.723 91.1312C130.778 92.8476 130.047 95.1894 130.667 95.8249C131.288 96.4604 132.254 95.2845 133.169 96.3753C134.285 97.6914 130.818 102.43 128.826 103.576L121.926 107.559Z"
        fill="url(#paint2_linear_555_63616)" />
    <path
        d="M124.923 106.072C124.89 106.071 124.858 106.063 124.828 106.049C124.798 106.036 124.771 106.016 124.749 105.992C124.727 105.968 124.709 105.939 124.698 105.909C124.687 105.878 124.681 105.845 124.683 105.812C125.022 99.6219 126.952 93.6241 130.287 88.3984C130.306 88.3711 130.33 88.348 130.358 88.3304C130.386 88.3128 130.418 88.3011 130.451 88.2959C130.483 88.2908 130.517 88.2923 130.549 88.3005C130.581 88.3086 130.611 88.3232 130.637 88.3433C130.69 88.3823 130.725 88.4402 130.735 88.5047C130.746 88.5693 130.73 88.6352 130.693 88.6886C127.417 93.8378 125.521 99.7433 125.188 105.837C125.186 105.87 125.178 105.902 125.164 105.932C125.149 105.961 125.129 105.988 125.104 106.01C125.08 106.031 125.051 106.048 125.02 106.059C124.989 106.07 124.956 106.074 124.923 106.072Z"
        fill="white" />
    <path
        d="M125.208 103.115C125.166 103.115 125.125 103.104 125.088 103.085C123.687 102.309 122.912 100.008 122.882 99.9126C122.87 99.8814 122.866 99.8483 122.868 99.8153C122.869 99.7822 122.878 99.7499 122.892 99.7201C122.907 99.6903 122.927 99.6637 122.952 99.6418C122.976 99.6198 123.005 99.603 123.037 99.5924C123.1 99.5718 123.168 99.5772 123.227 99.6072C123.287 99.6372 123.331 99.6895 123.352 99.7525C123.352 99.7525 124.102 101.969 125.353 102.645C125.41 102.678 125.452 102.732 125.469 102.796C125.487 102.859 125.48 102.927 125.449 102.985C125.426 103.028 125.391 103.063 125.348 103.087C125.305 103.11 125.257 103.12 125.208 103.115Z"
        fill="white" />
    <path
        d="M125.454 101.599C125.399 101.598 125.345 101.579 125.302 101.544C125.258 101.51 125.227 101.462 125.214 101.408C125.206 101.377 125.204 101.344 125.209 101.312C125.213 101.279 125.224 101.248 125.241 101.22C125.258 101.192 125.28 101.168 125.306 101.149C125.333 101.13 125.362 101.116 125.394 101.108C129.007 100.192 130.258 98.3009 130.268 98.2809C130.286 98.253 130.309 98.2288 130.336 98.2098C130.363 98.1908 130.393 98.1773 130.426 98.1701C130.458 98.1629 130.491 98.1621 130.524 98.1678C130.557 98.1735 130.588 98.1856 130.616 98.2034C130.644 98.2211 130.668 98.2442 130.687 98.2712C130.706 98.2983 130.719 98.3289 130.727 98.3612C130.734 98.3935 130.734 98.4269 130.729 98.4595C130.723 98.492 130.711 98.5232 130.693 98.5511C130.638 98.6362 129.337 100.623 125.519 101.593L125.454 101.599Z"
        fill="white" />
    <path
        d="M67.4834 99.783C67.4834 99.783 62.6847 98.6121 62.4345 89.6251C62.1693 79.9275 63.6104 68.6087 57.931 67.693C52.2515 66.7773 49.0991 73.6977 49.1691 81.779C49.2342 88.8545 52.0864 104.217 67.4634 107.229L67.4834 99.783Z"
        fill="url(#paint3_linear_555_63616)" />
    <path d="M67.4834 99.783C67.4834 99.783 62.6847 98.6121 62.4345 89.6251C62.1693 79.9275 63.6104 68.6087 57.931 67.693C52.2515 66.7773 49.0991 73.6977 49.1691 81.779C49.2342 88.8545 52.0864 104.217 67.4634 107.229L67.4834 99.783Z"
        fill="black"
        opacity="0.2" />
    <path
        d="M67.483 106.309H67.4379C63.9802 105.678 61.163 103.772 59.0664 100.649C52.8515 91.377 54.8081 74.0635 55.4536 71.0412C55.468 70.9768 55.5068 70.9205 55.5619 70.8841C55.6169 70.8477 55.6839 70.8341 55.7488 70.846C55.8136 70.8616 55.8699 70.9014 55.9062 70.9572C55.9425 71.0131 55.956 71.0807 55.944 71.1462C55.3085 74.1486 53.3619 91.2419 59.4817 100.369C60.3725 101.784 61.5478 102.999 62.9329 103.937C64.318 104.874 65.8828 105.513 67.528 105.813C67.5607 105.819 67.5918 105.832 67.6196 105.85C67.6474 105.868 67.6713 105.892 67.6899 105.919C67.7086 105.946 67.7215 105.977 67.7281 106.01C67.7347 106.042 67.7347 106.076 67.7282 106.109C67.7175 106.166 67.6871 106.217 67.6422 106.254C67.5973 106.29 67.5409 106.31 67.483 106.309Z"
        fill="white" />
    <path
        d="M67.4832 129.37C62.5243 130.041 54.4731 130.031 49.8244 126.368C45.1758 122.705 46.1465 119.553 47.9329 118.237C49.7193 116.921 51.2706 115.42 48.1982 112.497C45.1258 109.575 40.1919 104.881 38.5906 97.8408C36.9894 90.8003 37.78 86.3969 40.9225 84.9307C43.9698 83.5096 44.7755 85.7714 46.6419 90.435C48.5084 95.0987 52.7067 91.1006 56.2995 92.5567C59.8923 94.0128 59.7472 96.8951 59.9723 99.372C60.1975 101.849 61.3835 102.534 63.42 102.534C65.4566 102.534 67.4832 103.705 67.4832 106.037V129.37Z"
        fill="url(#paint4_linear_555_63616)" />
    <path
        d="M67.4831 121.194C67.4616 121.199 67.4394 121.199 67.418 121.194C67.2028 121.134 62.0738 119.643 54.603 112.782C46.6468 105.477 42.8939 94.5182 42.8538 94.4081C42.8346 94.3451 42.8406 94.277 42.8704 94.2183C42.9003 94.1595 42.9517 94.1146 43.014 94.0929C43.0763 94.0721 43.1444 94.0767 43.2034 94.1058C43.2624 94.1348 43.3076 94.1859 43.3292 94.248C43.3642 94.3581 47.0821 105.197 54.9433 112.412C62.309 119.182 67.4981 120.699 67.5531 120.714C67.5847 120.723 67.6141 120.738 67.6397 120.759C67.6653 120.779 67.6866 120.805 67.7024 120.834C67.7182 120.862 67.7282 120.894 67.7318 120.927C67.7353 120.959 67.7325 120.992 67.7232 121.024C67.707 121.074 67.6748 121.118 67.6315 121.149C67.5882 121.18 67.5361 121.195 67.4831 121.194Z"
        fill="white" />
    <path
        d="M56.6898 114.524C56.6395 114.525 56.5902 114.51 56.5489 114.481C56.5076 114.452 56.4764 114.411 56.4596 114.364C54.8534 110.241 54.4881 101.419 54.4581 101.043C54.4567 100.977 54.4809 100.913 54.5257 100.865C54.5705 100.816 54.6323 100.787 54.6983 100.783C54.7636 100.784 54.8263 100.809 54.8743 100.854C54.9223 100.898 54.9523 100.958 54.9585 101.023C54.9585 101.113 55.3337 110.136 56.91 114.184C56.922 114.215 56.9278 114.247 56.9271 114.281C56.9263 114.314 56.9189 114.346 56.9054 114.377C56.8919 114.407 56.8725 114.434 56.8484 114.457C56.8243 114.48 56.7959 114.497 56.7649 114.509C56.7407 114.518 56.7154 114.523 56.6898 114.524Z"
        fill="white" />
    <path
        d="M56.6499 120.454C56.1886 120.458 55.7274 120.434 55.2688 120.384C55.236 120.38 55.2042 120.37 55.1754 120.353C55.1465 120.337 55.1212 120.315 55.1007 120.289C55.0803 120.263 55.0652 120.234 55.0562 120.202C55.0473 120.17 55.0447 120.136 55.0487 120.104C55.0526 120.071 55.063 120.039 55.0792 120.01C55.0954 119.981 55.1172 119.956 55.1432 119.936C55.1692 119.915 55.199 119.9 55.2309 119.891C55.2627 119.882 55.296 119.88 55.3289 119.883C55.3739 119.883 60.0326 120.414 62.1692 118.237C62.1915 118.211 62.2189 118.189 62.2499 118.174C62.2808 118.159 62.3145 118.15 62.349 118.149C62.3834 118.147 62.4178 118.153 62.45 118.165C62.4822 118.177 62.5115 118.196 62.536 118.22C62.5606 118.245 62.5799 118.274 62.5927 118.306C62.6055 118.338 62.6115 118.372 62.6104 118.406C62.6094 118.441 62.6012 118.475 62.5864 118.506C62.5716 118.537 62.5505 118.565 62.5245 118.587C60.9783 120.184 58.2812 120.454 56.6499 120.454Z"
        fill="white" />
    <path
        d="M53.0471 25.701L52.5067 22.5835L49.7245 24.415C49.4703 23.9146 49.1099 23.4757 48.6687 23.129L49.9997 19.5261L47.4977 18.9707L45.6663 22.4734C45.0037 22.5852 44.3613 22.7943 43.7598 23.0939L42.9642 20.4519L39.9919 22.7887L40.187 25.8911C39.5817 26.5691 39.0328 27.2954 38.5457 28.0628L36.0938 27.9377L34.3725 31.7957L36.4791 32.6964C36.2592 33.4944 36.1201 34.3125 36.0638 35.1383L33.3867 37.6003L33.9221 40.7227L36.7093 38.8913C36.9621 39.3912 37.3227 39.8287 37.7651 40.1723L36.4591 43.7801L38.9611 44.3305L41.5831 41.7785C42.1886 41.6834 42.0385 40.5426 42.699 40.2173L43.4946 42.8494L46.4619 40.5175L46.3869 39.2966C46.9873 38.6261 49.2591 37.1499 49.7495 36.3793L50.365 35.3785L52.0863 31.5205L51.2857 30.0694L50.395 28.1779L53.0471 25.701ZM43.965 35.964C41.6832 37.7554 40.9626 38.1507 40.5773 35.7538C40.192 33.3569 41.4981 29.7141 43.7798 27.9177C46.0616 26.1213 46.9323 25.9962 47.3426 28.3881C47.7529 30.7799 46.2518 34.1926 43.965 35.964Z"
        fill="#E0E0E0" />
    <path d="M47.518 18.9707L50.7655 20.8422L48.9341 24.3349L45.6865 22.4634L47.518 18.9707Z"
        fill="#F5F5F5" />
    <path d="M55.7543 24.4535L52.9721 26.2849L49.7246 24.4135L52.5068 22.582L55.7543 24.4535Z"
        fill="#F5F5F5" />
    <path d="M55.3093 33.3765L53.2026 32.4808L49.9551 30.6094L52.0617 31.5051L55.3093 33.3765Z"
        fill="#E0E0E0" />
    <path d="M36.4541 43.7797L39.7016 45.6462L41.0327 42.0433L37.7851 40.1719L36.4541 43.7797Z"
        fill="#E0E0E0" />
    <path d="M46.713 44.7203L43.4704 42.8489L42.6748 40.2168L45.9223 42.0883L46.713 44.7203Z"
        fill="#E0E0E0" />
    <path
        d="M56.2896 27.5721L55.7542 24.4546L52.972 26.2861C52.716 25.7855 52.354 25.3466 51.9112 25L53.2423 21.3972L50.7653 20.8418L48.9289 24.3445C48.2663 24.4563 47.6239 24.6654 47.0224 24.965L46.2318 22.333L43.2595 24.6698L43.4546 27.7722C42.8487 28.455 42.2997 29.1864 41.8133 29.9589L39.3564 29.8338L37.6351 33.6918L39.7417 34.5925C39.5238 35.3927 39.3847 36.2122 39.3264 37.0394L36.6543 39.4663L37.1897 42.5888L39.9719 40.7574C40.228 41.2565 40.5901 41.6937 41.0327 42.0384L39.7017 45.6412L42.2036 46.1966L44.0351 42.6939C44.7002 42.5833 45.3447 42.3724 45.9466 42.0684L46.7372 44.7004L49.7095 42.3686L49.5143 39.2662C50.1196 38.5882 50.6685 37.8619 51.1556 37.0945L53.6125 37.2146L55.3339 33.3566L53.1972 32.4609C53.4187 31.6613 53.5595 30.8416 53.6175 30.014L56.2896 27.5721ZM47.2175 37.8551C44.9408 39.6465 42.7591 39.1611 42.3437 36.7692C41.9284 34.3774 43.4446 30.9797 45.7264 29.1883C48.0082 27.3969 50.1849 27.8873 50.6002 30.2792C51.0155 32.671 49.4993 36.0637 47.2175 37.8551Z"
        fill="#EBEBEB" />
    <path d="M46.2326 22.3226L42.985 20.4512L40.0127 22.788L43.2602 24.6595L46.2326 22.3226Z"
        fill="#F5F5F5" />
    <path d="M40.0127 22.7871L40.2078 25.8895L43.4554 27.761L43.2602 24.6586L40.0127 22.7871Z"
        fill="#E0E0E0" />
    <path d="M41.8137 29.933L38.5662 28.0615L36.1143 27.9414L39.3568 29.8129L41.8137 29.933Z"
        fill="#F5F5F5" />
    <path d="M36.1139 27.9414L34.3926 31.7944L37.6351 33.6659L39.3565 29.8129L36.1139 27.9414Z"
        fill="#E0E0E0" />
    <path d="M39.3269 37.0082L36.0843 35.1367L33.4072 37.5986L36.6498 39.4701L39.3269 37.0082Z"
        fill="#F5F5F5" />
    <path d="M37.1902 42.5935L33.9426 40.722L33.4072 37.5996L36.6498 39.4711L37.1902 42.5935Z"
        fill="#E0E0E0" />
    <path d="M50.7661 20.8422L47.5186 18.9707L50.0005 19.5261L53.243 21.3976L50.7661 20.8422Z"
        fill="#F5F5F5" />
    <path
        d="M38.5059 11.549V6.89039L34.798 8.56169C34.6016 7.7713 34.2625 7.02344 33.7973 6.35497L36.1341 1.64629L33.2819 0L30.3696 4.37842C29.558 4.30752 28.7403 4.38725 27.9577 4.61361L27.5474 0.565444L23.5142 2.89726L23.1089 7.40078C22.2312 8.17855 21.424 9.03255 20.697 9.95278L17.7847 8.95199L14.9325 13.8959L17.2643 15.8974C16.8335 16.987 16.4986 18.1122 16.2636 19.26L12.5557 21.8671V26.5307L16.2636 24.8594C16.46 25.6498 16.7991 26.3977 17.2643 27.0661L14.9425 31.7798L17.7948 33.4261L20.707 29.0477C21.5186 29.1184 22.3363 29.0386 23.1189 28.8125L23.5242 32.8607L27.5574 30.5289L27.9677 26.0253C29.2265 25.566 30.3417 24.7823 31.2002 23.7536L33.2919 24.4891L36.1441 19.5503L34.3927 18.0491C34.7729 16.7973 34.9138 15.4851 34.808 14.1811L38.5059 11.549ZM25.5308 23.1881C22.4384 24.9745 20.5269 23.6885 20.5269 20.1307C20.5269 16.573 23.0839 12.1745 26.1813 10.3881C29.2787 8.60172 31.1502 9.88772 31.1502 13.4755C31.1502 17.0633 28.6282 21.3967 25.5308 23.1881Z"
        fill="#E0E0E0" />
    <path d="M36.5249 1.86646L33.2824 0L30.3701 4.37842L33.6126 6.24989L36.5249 1.86646Z"
        fill="#F5F5F5" />
    <path d="M41.7533 8.76209L38.5057 6.89062L34.7979 8.56193L38.0454 10.4334L41.7533 8.76209Z"
        fill="#F5F5F5" />
    <path d="M26.7572 34.7321L23.5147 32.8607L23.1094 28.8125L26.3519 30.684L26.7572 34.7321Z"
        fill="#E0E0E0" />
    <path d="M14.9277 31.779L18.1753 33.6505L20.5121 28.9418L17.2646 27.0703L14.9277 31.779Z"
        fill="#E0E0E0" />
    <path
        d="M41.754 13.446V8.78735L38.0461 10.4436C37.8517 9.65254 37.5124 8.90432 37.0453 8.23692L39.3821 3.52824L36.5299 1.87695L33.6176 6.26038C32.806 6.18701 31.9879 6.26679 31.2057 6.49556L30.7954 2.43739L26.7623 4.76922L26.352 9.27273C25.4755 10.0518 24.6685 10.9057 23.9401 11.8247L21.0278 10.8239L18.1756 15.7678L20.5124 17.7694C20.0793 18.8582 19.7443 19.9835 19.5116 21.132L15.8037 23.739V28.4027L19.5116 26.7314C19.7058 27.5225 20.0452 28.2708 20.5124 28.9381L18.1756 33.6468L21.0278 35.2931L23.9401 30.9146C24.7517 30.9855 25.5694 30.9058 26.352 30.6795L26.7623 34.7276L30.7954 32.3958L31.2007 27.8923C32.0785 27.1145 32.8856 26.2605 33.6126 25.3403L36.5249 26.3411L39.3771 21.4022L37.0403 19.4006C37.4733 18.3118 37.8082 17.1864 38.0411 16.038L41.754 13.446ZM28.7788 25.0851C25.6814 26.8715 23.1695 25.4203 23.1695 21.8476C23.1695 18.2748 25.6714 13.9264 28.7788 12.135C31.8863 10.3436 34.3832 11.7997 34.3832 15.3725C34.3832 18.9453 31.8713 23.2687 28.7788 25.0601V25.0851Z"
        fill="#EBEBEB" />
    <path d="M20.6974 9.9622L23.94 11.8337L21.0277 10.8179L17.7852 8.94141L20.6974 9.9622Z"
        fill="#F0F0F0" />
    <path d="M17.7846 8.94705L14.9316 13.8926L18.1781 15.7654L21.0311 10.8199L17.7846 8.94705Z"
        fill="#F5F5F5" />
    <path d="M14.9277 13.8867L18.1753 15.7582L20.5121 17.7698L17.2646 15.9033L14.9277 13.8867Z"
        fill="#E0E0E0" />
    <path d="M16.2636 19.2656L19.5111 21.1371L15.8032 23.7441L12.5557 21.8727L16.2636 19.2656Z"
        fill="#F5F5F5" />
    <path d="M12.5557 21.873L15.8032 23.7445V28.4082L12.5557 26.5367V21.873Z" fill="#E0E0E0" />
    <path d="M30.7953 2.43787L27.5478 0.566406L23.5146 2.89823L26.7572 4.76969L30.7953 2.43787Z"
        fill="#F5F5F5" />
    <path
        d="M72.4279 136.067L119.465 108.906C119.568 108.87 119.658 108.802 119.722 108.712C119.785 108.623 119.819 108.516 119.819 108.406C119.819 108.296 119.785 108.189 119.722 108.099C119.658 108.009 119.568 107.942 119.465 107.905L115.116 105.403C114.847 105.268 114.55 105.197 114.248 105.197C113.947 105.197 113.649 105.268 113.38 105.403L66.3281 132.54C66.2245 132.576 66.1347 132.644 66.0712 132.733C66.0077 132.823 65.9736 132.93 65.9736 133.04C65.9736 133.15 66.0077 133.257 66.0712 133.347C66.1347 133.436 66.2245 133.504 66.3281 133.54L70.6915 136.042C70.9589 136.182 71.2552 136.257 71.5567 136.261C71.8583 136.265 72.1566 136.199 72.4279 136.067Z"
        fill="#E0E0E0" />
    <path
        d="M118.174 4.03783L75.7604 28.527C75.1299 28.9384 74.6052 29.4926 74.2288 30.1446C73.8524 30.7966 73.6348 31.5281 73.5938 32.2799V132.893C73.5938 134.275 74.5645 134.835 75.7604 134.144L118.174 109.655C118.805 109.245 119.33 108.691 119.707 108.039C120.083 107.386 120.3 106.654 120.34 105.902V5.28881C120.34 3.90773 119.375 3.34729 118.174 4.03783Z"
        fill="#455A64" />
    <path
        d="M75.7608 28.5277L118.174 4.03852C119.245 3.41803 120.131 3.80334 120.311 4.87918C120.211 4.20277 119.968 3.55521 119.6 2.97909C119.232 2.40298 118.746 1.91135 118.174 1.53656L116.413 0.535782C115.741 0.195117 114.999 0.0175781 114.246 0.0175781C113.493 0.0175781 112.751 0.195117 112.079 0.535782L69.6611 25.0049C69.0222 25.4055 68.4954 25.9616 68.1299 26.6212L74.2296 30.1239C74.595 29.4695 75.1222 28.9199 75.7608 28.5277Z"
        fill="#37474F" />
    <path
        d="M67.4844 129.371C67.5255 130.123 67.743 130.854 68.1194 131.506C68.4959 132.158 69.0206 132.712 69.6511 133.124L71.4174 134.125C72.0288 134.43 72.6979 134.604 73.3808 134.633C74.0638 134.662 74.7452 134.547 75.3805 134.295C74.3798 134.685 73.5841 134.11 73.5841 132.874V32.28C73.6092 31.5251 73.8281 30.7893 74.2196 30.1434L68.1199 26.6406C67.7338 27.2817 67.5152 28.0096 67.4844 28.7573V129.371Z"
        fill="#263238" />
    <path
        d="M76.9266 41.9334L117.023 18.7903C117.744 18.38 118.324 18.7153 118.324 19.5409V94.0091C118.3 94.4604 118.17 94.8996 117.943 95.291C117.717 95.6823 117.402 96.0146 117.023 96.2608L76.9416 119.404C76.2211 119.819 75.6406 119.484 75.6406 118.653V44.1852C75.6634 43.7353 75.7917 43.2971 76.015 42.9059C76.2384 42.5147 76.5507 42.1816 76.9266 41.9334Z"
        fill="white" />
    <path
        d="M96.9667 20.0968C96.7453 20.2421 96.5612 20.4373 96.4291 20.6668C96.297 20.8962 96.2206 21.1535 96.2061 21.4178C96.2061 21.9182 96.5463 22.1034 96.9667 21.8582C97.1888 21.7138 97.3736 21.5188 97.5058 21.2891C97.638 21.0595 97.7139 20.8018 97.7272 20.5371C97.7272 20.0518 97.387 19.8566 96.9667 20.0968Z"
        fill="#37474F" />
    <path
        d="M96.9672 111.392C96.0924 111.964 95.3648 112.734 94.8432 113.64C94.3215 114.546 94.0206 115.562 93.9648 116.606C93.9648 118.522 95.3109 119.303 96.9672 118.342C97.8417 117.77 98.5691 116.999 99.0907 116.093C99.6123 115.188 99.9133 114.172 99.9695 113.128C99.9795 111.212 98.6285 110.431 96.9672 111.392Z"
        fill="#37474F" />
    <path
        d="M89.7668 27.8423C89.327 28.1342 88.962 28.5254 88.7013 28.9844C88.4405 29.4433 88.2913 29.9571 88.2656 30.4844C88.2656 31.4551 88.9462 31.8504 89.7668 31.365C90.2112 31.0759 90.5811 30.6859 90.8463 30.2268C91.1115 29.7677 91.2645 29.2524 91.293 28.723C91.293 27.7522 90.6125 27.3569 89.7668 27.8423Z"
        fill="#37474F" />
    <path
        d="M93.5039 27.512C93.5039 28.1625 94.0043 28.4077 94.5898 28.0624L104.598 22.2729C104.908 22.0793 105.167 21.8152 105.356 21.5022C105.545 21.1892 105.657 20.836 105.683 20.4715C105.683 19.826 105.183 19.5808 104.598 19.9261L94.5898 25.7156C94.2804 25.9087 94.0209 26.172 93.8322 26.4841C93.6436 26.7962 93.5311 27.1483 93.5039 27.512Z"
        fill="#37474F" />
    <path
        d="M70.8663 45.1565C71.2214 45.3878 71.517 45.6995 71.7292 46.0664C71.9413 46.4333 72.064 46.845 72.0873 47.2682C72.0873 48.0488 71.5419 48.364 70.8663 47.9737C70.5124 47.7416 70.218 47.4295 70.0068 47.0627C69.7956 46.6959 69.6735 46.2847 69.6504 45.8621C69.6504 45.0865 70.1958 44.7712 70.8663 45.1565Z"
        fill="#37474F" />
    <path
        d="M70.8663 54.5522C71.2214 54.7835 71.517 55.0952 71.7292 55.4621C71.9413 55.829 72.064 56.2407 72.0873 56.6638C72.0873 57.4394 71.5419 57.7547 70.8663 57.3694C70.5124 57.1372 70.218 56.8252 70.0068 56.4584C69.7956 56.0916 69.6735 55.6803 69.6504 55.2577C69.6504 54.4771 70.1958 54.1619 70.8663 54.5522Z"
        fill="#37474F" />
    <path
        d="M70.4866 45.3464C70.8417 45.5777 71.1373 45.8894 71.3494 46.2563C71.5615 46.6232 71.6842 47.0349 71.7075 47.458C71.7075 48.2336 71.1621 48.5489 70.4866 48.1636C70.1315 47.9323 69.8359 47.6205 69.6237 47.2537C69.4116 46.8868 69.2889 46.4751 69.2656 46.0519C69.2706 45.2713 69.8161 44.9711 70.4866 45.3464Z"
        fill="#455A64" />
    <path
        d="M70.4866 54.7385C70.8423 54.9703 71.1383 55.2829 71.3505 55.6507C71.5627 56.0185 71.685 56.4312 71.7075 56.8552C71.7075 57.6308 71.1621 57.946 70.4866 57.5557C70.1306 57.3253 69.8344 57.0138 69.6222 56.6467C69.4099 56.2797 69.2877 55.8675 69.2656 55.4441C69.2706 54.6685 69.8161 54.3532 70.4866 54.7385Z"
        fill="#455A64" />
    <path
        d="M126.44 21.8975C126.44 21.0669 125.86 20.7316 125.139 21.1469L120.34 23.9141L85.0578 44.29C84.6789 44.5363 84.3635 44.8686 84.1374 45.2599C83.9113 45.6512 83.7809 46.0905 83.7568 46.5418V120.99C83.7568 121.821 84.3373 122.156 85.0578 121.741L120.355 101.36L125.139 98.5975C125.518 98.3512 125.834 98.0189 126.06 97.6275C126.286 97.2362 126.416 96.797 126.44 96.3457V21.8975Z"
        fill="white" />
    <path
        d="M126.941 21.8973C126.972 21.6464 126.929 21.3917 126.816 21.1652C126.704 20.9387 126.527 20.7504 126.308 20.6238C126.089 20.4972 125.838 20.438 125.585 20.4536C125.333 20.4692 125.091 20.5589 124.889 20.7114L120.31 23.3585L84.8076 43.8745C84.3505 44.163 83.9705 44.5584 83.7002 45.0265C83.43 45.4946 83.2777 46.0215 83.2564 46.5616V120.99C83.2363 121.24 83.2844 121.49 83.3954 121.715C83.5064 121.94 83.6763 122.13 83.8869 122.266C84.0661 122.37 84.2701 122.423 84.4774 122.421C84.7707 122.412 85.0567 122.327 85.308 122.176L120.836 101.66L125.404 99.0226C125.859 98.7312 126.237 98.3352 126.507 97.8677C126.777 97.4001 126.931 96.8747 126.956 96.3355L126.941 21.8973ZM120.32 100.804L119.91 101.044L84.8276 121.3C84.7687 121.345 84.7003 121.377 84.6276 121.392C84.5549 121.408 84.4797 121.407 84.4073 121.39C84.3423 121.35 84.2772 121.21 84.2772 120.98V46.5416C84.3031 46.1782 84.4112 45.8255 84.5932 45.51C84.7752 45.1945 85.0265 44.9244 85.328 44.7201L120.375 24.4543L125.379 21.5571C125.438 21.5118 125.507 21.4802 125.579 21.4646C125.652 21.449 125.727 21.4498 125.8 21.467C125.865 21.507 125.93 21.6471 125.93 21.8773V96.3455C125.904 96.7088 125.796 97.0615 125.614 97.377C125.432 97.6925 125.18 97.9626 124.879 98.1669L120.31 100.804H120.32Z"
        fill="url(#paint5_linear_555_63616)" />
    <path
        d="M105.098 39.1958C109.602 36.6038 113.23 38.6954 113.23 43.8945C113.23 49.0935 109.587 55.4035 105.098 57.9755C100.61 60.5475 96.9668 58.4759 96.9668 53.2818C96.9668 48.0878 100.61 41.7928 105.098 39.1958Z"
        fill="url(#paint6_linear_555_63616)" />
    <path
        d="M105.098 43.2787C106.554 42.4381 107.735 43.1186 107.735 44.7799C107.686 45.6951 107.421 46.5857 106.963 47.3795C106.505 48.1733 105.866 48.8479 105.098 49.3485C103.642 50.1891 102.461 49.5086 102.461 47.8473C102.51 46.9321 102.775 46.0415 103.233 45.2477C103.691 44.4539 104.33 43.7793 105.098 43.2787Z"
        fill="url(#paint7_linear_555_63616)" />
    <path
        d="M110.237 52.2456C110.237 49.4834 108.301 48.3626 105.904 49.7436L104.403 50.6093C102.011 51.9904 100.069 55.353 100.069 58.1152V58.8608C101.455 59.3161 103.197 59.0709 105.073 57.9751C107.152 56.6929 108.91 54.9521 110.212 52.8861L110.237 52.2456Z"
        fill="url(#paint8_linear_555_63616)" />
    <path d="M105.098 43.2787C106.554 42.4381 107.735 43.1186 107.735 44.7799C107.686 45.6951 107.421 46.5857 106.963 47.3795C106.505 48.1733 105.866 48.8479 105.098 49.3485C103.642 50.1891 102.461 49.5086 102.461 47.8473C102.51 46.9321 102.775 46.0415 103.233 45.2477C103.691 44.4539 104.33 43.7793 105.098 43.2787Z"
        fill="white"
        opacity="0.7" />
    <path d="M110.237 52.2456C110.237 49.4834 108.301 48.3626 105.904 49.7436L104.403 50.6093C102.011 51.9904 100.069 55.353 100.069 58.1152V58.8608C101.455 59.3161 103.197 59.0709 105.073 57.9751C107.152 56.6929 108.91 54.9521 110.212 52.8861L110.237 52.2456Z"
        fill="white"
        opacity="0.7" />
    <path
        d="M89.3657 69.41L99.8289 63.3703C100.329 63.0951 100.695 63.3153 100.695 63.8707V64.216C100.679 64.5167 100.592 64.8094 100.442 65.0703C100.291 65.3312 100.081 65.5528 99.8289 65.7171L89.3657 71.7569C88.8903 72.0321 88.5 71.8069 88.5 71.2565V70.9112C88.5162 70.6106 88.6031 70.318 88.7535 70.0572C88.9039 69.7964 89.1136 69.5747 89.3657 69.41Z"
        fill="url(#paint9_linear_555_63616)" />
    <path d="M89.3657 69.41L99.8289 63.3703C100.329 63.0951 100.695 63.3153 100.695 63.8707V64.216C100.679 64.5167 100.592 64.8094 100.442 65.0703C100.291 65.3312 100.081 65.5528 99.8289 65.7171L89.3657 71.7569C88.8903 72.0321 88.5 71.8069 88.5 71.2565V70.9112C88.5162 70.6106 88.6031 70.318 88.7535 70.0572C88.9039 69.7964 89.1136 69.5747 89.3657 69.41Z"
        fill="black"
        opacity="0.1" />
    <path
        d="M88.9353 76.7002L120.59 58.426C120.825 58.2859 121.02 58.3959 121.02 58.6762V62.3691C121.012 62.5189 120.968 62.6647 120.893 62.7949C120.819 62.9252 120.715 63.0363 120.59 63.1196L88.9353 81.3939C88.6952 81.534 88.5 81.4189 88.5 81.1437V77.4508C88.5086 77.3003 88.5525 77.154 88.6281 77.0236C88.7037 76.8932 88.809 76.7824 88.9353 76.7002Z"
        fill="url(#paint10_linear_555_63616)" />
    <path d="M88.9353 76.7002L120.59 58.426C120.825 58.2859 121.02 58.3959 121.02 58.6762V62.3691C121.012 62.5189 120.968 62.6647 120.893 62.7949C120.819 62.9252 120.715 63.0363 120.59 63.1196L88.9353 81.3939C88.6952 81.534 88.5 81.4189 88.5 81.1437V77.4508C88.5086 77.3003 88.5525 77.154 88.6281 77.0236C88.7037 76.8932 88.809 76.7824 88.9353 76.7002Z"
        fill="white"
        opacity="0.2" />
    <path
        d="M89.3657 85.8369L99.8289 79.7971C100.329 79.5219 100.695 79.7471 100.695 80.2975V80.6428C100.679 80.9436 100.593 81.2365 100.442 81.4974C100.292 81.7584 100.081 81.9799 99.8289 82.144L89.3657 88.1837C88.8903 88.4639 88.5 88.2387 88.5 87.6833V87.338C88.517 87.0376 88.6042 86.7453 88.7545 86.4846C88.9049 86.2239 89.1142 86.0021 89.3657 85.8369Z"
        fill="url(#paint11_linear_555_63616)" />
    <path d="M89.3657 85.8369L99.8289 79.7971C100.329 79.5219 100.695 79.7471 100.695 80.2975V80.6428C100.679 80.9436 100.593 81.2365 100.442 81.4974C100.292 81.7584 100.081 81.9799 99.8289 82.144L89.3657 88.1837C88.8903 88.4639 88.5 88.2387 88.5 87.6833V87.338C88.517 87.0376 88.6042 86.7453 88.7545 86.4846C88.9049 86.2239 89.1142 86.0021 89.3657 85.8369Z"
        fill="black"
        opacity="0.1" />
    <path
        d="M88.9353 93.129L120.59 74.8547C120.825 74.7146 121.02 74.8297 121.02 75.1049V78.7978C121.012 78.9477 120.968 79.0935 120.893 79.2237C120.819 79.354 120.715 79.4651 120.59 79.5484L88.9353 97.8227C88.6952 97.9628 88.5 97.8527 88.5 97.5725V93.8796C88.5086 93.7291 88.5525 93.5828 88.6281 93.4524C88.7037 93.322 88.809 93.2112 88.9353 93.129Z"
        fill="url(#paint12_linear_555_63616)" />
    <path d="M88.9353 93.129L120.59 74.8547C120.825 74.7146 121.02 74.8297 121.02 75.1049V78.7978C121.012 78.9477 120.968 79.0935 120.893 79.2237C120.819 79.354 120.715 79.4651 120.59 79.5484L88.9353 97.8227C88.6952 97.9628 88.5 97.8527 88.5 97.5725V93.8796C88.5086 93.7291 88.5525 93.5828 88.6281 93.4524C88.7037 93.322 88.809 93.2112 88.9353 93.129Z"
        fill="white"
        opacity="0.2" />
    <path
        d="M101.56 95.2257L114.07 88.0151C114.57 87.7349 114.94 87.96 114.94 88.5155V92.3785C114.924 92.6797 114.837 92.9727 114.685 93.2336C114.534 93.4945 114.323 93.7159 114.07 93.8797L101.56 101.095C101.06 101.371 100.694 101.145 100.694 100.595V96.7269C100.712 96.4265 100.799 96.1344 100.949 95.8738C101.1 95.6132 101.309 95.3912 101.56 95.2257Z"
        fill="url(#paint13_linear_555_63616)" />
    <path d="M101.56 95.2257L114.07 88.0151C114.57 87.7349 114.94 87.96 114.94 88.5155V92.3785C114.924 92.6797 114.837 92.9727 114.685 93.2336C114.534 93.4945 114.323 93.7159 114.07 93.8797L101.56 101.095C101.06 101.371 100.694 101.145 100.694 100.595V96.7269C100.712 96.4265 100.799 96.1344 100.949 95.8738C101.1 95.6132 101.309 95.3912 101.56 95.2257Z"
        fill="black"
        opacity="0.1" />
    <path
        d="M131.184 78.922C131.184 78.922 125.039 70.4454 124.679 69.4146C124.394 68.654 124.679 67.5231 124.769 66.9977C124.859 66.4723 124.939 65.3014 125.029 64.9962C125.179 64.4257 124.444 64.5408 124.028 65.0612C123.613 65.5816 123.473 66.6224 123.258 66.7926C123.043 66.9627 121.406 64.5758 120.551 63.475C119.695 62.3741 119.16 61.7036 118.634 62.1139C118.259 62.4091 118.539 63.0496 119.16 63.9904C119.522 64.4969 119.856 65.0231 120.16 65.5666C120.256 65.7718 119.745 65.7868 119.47 66.2121C119.255 66.5424 119.47 67.0778 119.17 67.333C118.985 67.4736 118.858 67.6773 118.814 67.9052C118.77 68.1331 118.811 68.3694 118.93 68.5689C119.487 69.4437 120.205 70.2044 121.046 70.8107C121.967 71.4462 122.337 71.6714 122.883 72.537C123.428 73.4027 128.322 82.2446 128.652 82.775C128.982 83.3055 129.618 84.3863 130.584 84.4163C131.549 84.4463 139.456 77.641 139.861 77.3008C141.162 76.2149 141.577 76.0598 141.797 77.0356C141.873 77.3824 141.93 77.7332 141.968 78.0864C142.123 79.3273 142.968 83.7608 142.968 83.7608C142.968 83.7608 146.971 85.6973 150.259 84.7616C153.547 83.8259 154.657 82.4298 154.657 82.4298L153.011 79.7477C153.456 78.6418 155.513 74.1583 156.179 71.0209L145.871 69.3546C145.66 69.3095 145.32 69.2245 144.87 69.1094C144.304 68.9592 142.868 68.4639 141.782 69.4146C138.24 72.502 131.194 78.922 131.194 78.922"
        fill="#FFA8A7" />
    <path
        d="M151.62 130.932L149.773 133.499C150.613 133.89 151.53 134.087 152.456 134.074C154.112 134.134 154.567 133.574 154.627 133.464C154.907 132.863 154.472 131.782 154.352 130.852L151.62 130.932Z"
        fill="#37474F" />
    <path
        d="M149.878 132.268C149.878 132.268 147.637 132.123 146.09 131.932C144.544 131.742 143.318 132.493 143.679 133.128C144.039 133.764 144.895 134.294 146.226 134.74C147.361 135.125 148.728 135.4 149.908 135.74C151.089 136.081 151.91 136.526 152.596 136.286C153.361 136.021 153.691 135.715 153.626 135.155C153.459 134.358 153.252 133.569 153.006 132.793L149.878 132.268Z"
        fill="#37474F" />
    <path
        d="M154.627 128.355C154.627 128.355 154.347 130.687 154.327 131.188C154.307 131.688 152.05 131.848 151.62 130.932L151.55 128.08L154.627 128.355Z"
        fill="#F28F8F" />
    <path
        d="M152.355 129.785L153.161 133.328C153.161 133.328 153.236 133.758 151.395 134.033C149.553 134.309 146.661 133.068 146.165 132.818C145.67 132.567 145.615 132.062 147.426 132.162C149.238 132.262 149.878 132.267 149.878 132.267L149.288 130.701L152.355 129.785Z"
        fill="#FFA8A7" />
    <path
        d="M156.149 70.99L157.425 70.6348C157.425 70.6348 160.092 79.0764 160.388 79.892C160.683 80.7076 161.018 81.5683 160.443 82.5741C159.757 83.77 156.149 88.5788 156.149 88.5788L153.857 86.337L156.459 81.5733L154.158 76.9197L156.149 70.99Z"
        fill="#F28F8F" />
    <path
        d="M143.043 60.0266C142.744 59.465 142.592 58.8368 142.602 58.2006C142.612 57.5644 142.782 56.941 143.098 56.3887C144.369 54.0319 147.202 52.886 150.574 53.3214C152.135 53.5265 153.977 54.8225 154.983 56.759C156.094 58.9057 156.199 63.2291 156.484 64.8654L143.043 60.0266Z"
        fill="#37474F" />
    <path
        d="M142.953 60.9531C142.953 60.9531 142.153 62.4793 142.293 62.6194C142.5 62.7406 142.727 62.8253 142.963 62.8696L142.953 60.9531Z"
        fill="#FFA8A7" />
    <path
        d="M145.385 56.1288C144.514 56.6943 143.013 57.7351 142.948 61.1627C142.878 64.6655 143.378 65.8214 143.899 66.2267C144.249 66.5019 146.306 66.3618 147.186 66.1566C148.067 65.9515 150.604 64.6955 151.52 62.789C152.596 60.5473 152.375 57.2847 150.779 56.2839C149.967 55.8035 149.046 55.5372 148.102 55.5101C147.159 55.483 146.224 55.6959 145.385 56.1288Z"
        fill="#FFA8A7" />
    <path
        d="M154.628 82.4082C156.169 84.8101 157.63 86.9117 157.951 89.6238C158.611 95.3233 156.449 101.838 155.984 106.057C156.859 107.257 157.364 108.686 157.435 110.17C157.435 111.916 154.628 128.354 154.628 128.354C154.628 128.354 152.586 128.975 151.551 128.079L149.624 97.8403L150.625 94.1574L154.628 82.4082Z"
        fill="url(#paint14_linear_555_63616)" />
    <path d="M154.628 82.4082C156.169 84.8101 157.63 86.9117 157.951 89.6238C158.611 95.3233 156.449 101.838 155.984 106.057C156.859 107.257 157.364 108.686 157.435 110.17C157.435 111.916 154.628 128.354 154.628 128.354C154.628 128.354 152.586 128.975 151.551 128.079L149.624 97.8403L150.625 94.1574L154.628 82.4082Z"
        fill="black"
        opacity="0.2" />
    <path
        d="M149.624 97.8403L150.625 94.1574C152.541 93.653 154.389 92.9188 156.129 91.9707C156.129 91.9707 155.088 93.8672 152.096 94.908L150.55 99.6367L150.42 110.47L149.624 97.8403Z"
        fill="url(#paint15_linear_555_63616)" />
    <path d="M149.624 97.8403L150.625 94.1574C152.541 93.653 154.389 92.9188 156.129 91.9707C156.129 91.9707 155.088 93.8672 152.096 94.908L150.55 99.6367L150.42 110.47L149.624 97.8403Z"
        fill="black"
        opacity="0.3" />
    <path
        d="M154.627 82.4082C155.453 83.7593 157.424 86.061 157.004 88.2778C156.504 90.9599 155.053 92.8463 150.639 94.1574L146.496 109.169C146.496 109.169 148.653 111.171 149.313 113.107C149.974 115.044 152.355 129.795 152.355 129.795C152.355 129.795 151.615 131.001 149.288 130.711C149.288 130.711 141.177 112.196 140.606 110.991C139.914 109.769 139.671 108.344 139.921 106.962C140.176 105.021 142.923 83.7693 142.923 83.7693L154.627 82.4082Z"
        fill="url(#paint16_linear_555_63616)" />
    <path d="M154.627 82.4082C155.453 83.7593 157.424 86.061 157.004 88.2778C156.504 90.9599 155.053 92.8463 150.639 94.1574L146.496 109.169C146.496 109.169 148.653 111.171 149.313 113.107C149.974 115.044 152.355 129.795 152.355 129.795C152.355 129.795 151.615 131.001 149.288 130.711C149.288 130.711 141.177 112.196 140.606 110.991C139.914 109.769 139.671 108.344 139.921 106.962C140.176 105.021 142.923 83.7693 142.923 83.7693L154.627 82.4082Z"
        fill="black"
        opacity="0.2" />
    <path
        d="M156.148 70.9896L145.84 69.3233C145.63 69.2783 145.29 69.1932 144.839 69.0781C144.839 69.0781 144.399 75.5432 141.752 77.0243C141.817 77.3346 141.872 77.6799 141.922 78.0752C142.077 79.3161 142.923 83.7496 142.923 83.7496C142.923 83.7496 146.926 85.6861 150.214 84.7504C153.501 83.8146 154.612 82.4185 154.612 82.4185L152.966 79.7365C153.426 78.6206 155.498 74.1371 156.148 70.9896Z"
        fill="url(#paint17_linear_555_63616)" />
    <path d="M156.148 70.9896L145.84 69.3233C145.63 69.2783 145.29 69.1932 144.839 69.0781C144.839 69.0781 144.399 75.5432 141.752 77.0243C141.817 77.3346 141.872 77.6799 141.922 78.0752C142.077 79.3161 142.923 83.7496 142.923 83.7496C142.923 83.7496 146.926 85.6861 150.214 84.7504C153.501 83.8146 154.612 82.4185 154.612 82.4185L152.966 79.7365C153.426 78.6206 155.498 74.1371 156.148 70.9896Z"
        fill="white"
        opacity="0.7" />
    <path
        d="M153.432 78.6719C152.063 79.4939 150.629 80.2018 149.144 80.7885C150.491 80.7616 151.811 80.3969 152.982 79.7277L153.432 78.6719Z"
        fill="url(#paint18_linear_555_63616)" />
    <path
        d="M145.13 56.2981C145.13 56.2981 144.629 59.5506 145.81 61.4621C145.81 61.4621 146.251 60.1661 147.346 60.4113C148.442 60.6565 148.502 62.1026 147.732 62.9133C147.536 63.1406 147.28 63.3082 146.993 63.3967C146.706 63.4852 146.4 63.4911 146.11 63.4137C146.11 63.4137 145.935 65.7655 145.84 67.737C145.745 69.7086 145.225 74.0069 147.442 75.7433C149.658 77.4796 155.223 78.0901 157.83 74.4473C159.281 72.4207 157.354 68.8379 156.459 64.8198C155.633 61.1269 155.168 55.6526 151.249 54.7719C147.331 53.8912 145.13 56.2981 145.13 56.2981Z"
        fill="#37474F" />
    <path
        d="M159.506 11.8584L158.681 12.3588C158.75 12.065 158.788 11.7648 158.796 11.4631C158.796 9.78676 157.62 9.11123 156.169 9.9619C155.727 10.2283 155.333 10.5665 155.003 10.9627C155.003 8.71092 153.421 7.7952 151.47 8.92108C150.442 9.59174 149.586 10.4954 148.972 11.5587C148.358 12.6219 148.004 13.8149 147.937 15.0409C147.937 15.156 147.937 15.266 147.937 15.3761C147.434 15.3129 146.926 15.4299 146.501 15.7064C145.736 16.2046 145.1 16.8762 144.644 17.6665C144.187 18.4568 143.923 19.3436 143.874 20.2549C143.874 20.4668 143.896 20.6781 143.939 20.8854L143.499 21.1406C142.303 21.8312 141.332 23.1772 141.332 24.143C141.332 25.1087 142.303 25.3389 143.499 24.6434L159.511 15.4112C160.707 14.7206 161.678 13.3746 161.678 12.4088C161.678 11.4431 160.702 11.1628 159.506 11.8584Z"
        fill="#EBEBEB" />
    <defs>
        <linearGradient gradientUnits="userSpaceOnUse" id="paint0_linear_555_63616" x1="33.4201" x2="20.8902"
            y1="134.836" y2="132.797">
            <stop stop-color="#246BFD" />
            <stop offset="1" stop-color="#5089FF" />
        </linearGradient>
        <linearGradient gradientUnits="userSpaceOnUse" id="paint1_linear_555_63616" x1="27.0942" x2="8.845"
            y1="139.544" y2="136.483">
            <stop stop-color="#246BFD" />
            <stop offset="1" stop-color="#5089FF" />
        </linearGradient>
        <linearGradient gradientUnits="userSpaceOnUse" id="paint2_linear_555_63616" x1="133.386" x2="116.056"
            y1="107.559" y2="104.348">
            <stop stop-color="#246BFD" />
            <stop offset="1" stop-color="#5089FF" />
        </linearGradient>
        <linearGradient gradientUnits="userSpaceOnUse" id="paint3_linear_555_63616" x1="67.4834" x2="44.2746"
            y1="107.229" y2="104.118">
            <stop stop-color="#246BFD" />
            <stop offset="1" stop-color="#5089FF" />
        </linearGradient>
        <linearGradient gradientUnits="userSpaceOnUse" id="paint4_linear_555_63616" x1="67.4832" x2="30.516"
            y1="129.71" y2="122.668">
            <stop stop-color="#246BFD" />
            <stop offset="1" stop-color="#5089FF" />
        </linearGradient>
        <linearGradient gradientUnits="userSpaceOnUse" id="paint5_linear_555_63616" x1="126.956" x2="71.4378"
            y1="122.421" y2="115.522">
            <stop stop-color="#246BFD" />
            <stop offset="1" stop-color="#5089FF" />
        </linearGradient>
        <linearGradient gradientUnits="userSpaceOnUse" id="paint6_linear_555_63616" x1="113.23" x2="93.2589"
            y1="59.0787" y2="54.5934">
            <stop stop-color="#246BFD" />
            <stop offset="1" stop-color="#5089FF" />
        </linearGradient>
        <linearGradient gradientUnits="userSpaceOnUse" id="paint7_linear_555_63616" x1="107.735" x2="101.26"
            y1="49.7092" y2="48.2513">
            <stop stop-color="#246BFD" />
            <stop offset="1" stop-color="#5089FF" />
        </linearGradient>
        <linearGradient gradientUnits="userSpaceOnUse" id="paint8_linear_555_63616" x1="110.237" x2="98.1846"
            y1="59.0778" y2="55.4979">
            <stop stop-color="#246BFD" />
            <stop offset="1" stop-color="#5089FF" />
        </linearGradient>
        <linearGradient gradientUnits="userSpaceOnUse" id="paint9_linear_555_63616" x1="100.695" x2="87.2286"
            y1="71.8743" y2="66.3525">
            <stop stop-color="#246BFD" />
            <stop offset="1" stop-color="#5089FF" />
        </linearGradient>
        <linearGradient gradientUnits="userSpaceOnUse" id="paint10_linear_555_63616" x1="121.02" x2="85.0672"
            y1="81.4537" y2="66.771">
            <stop stop-color="#246BFD" />
            <stop offset="1" stop-color="#5089FF" />
        </linearGradient>
        <linearGradient gradientUnits="userSpaceOnUse" id="paint11_linear_555_63616" x1="100.695" x2="87.2276"
            y1="88.3042" y2="82.7834">
            <stop stop-color="#246BFD" />
            <stop offset="1" stop-color="#5089FF" />
        </linearGradient>
        <linearGradient gradientUnits="userSpaceOnUse" id="paint12_linear_555_63616" x1="121.02" x2="85.0672"
            y1="97.8834" y2="83.2007">
            <stop stop-color="#246BFD" />
            <stop offset="1" stop-color="#5089FF" />
        </linearGradient>
        <linearGradient gradientUnits="userSpaceOnUse" id="paint13_linear_555_63616" x1="114.94" x2="98.1763"
            y1="101.213" y2="96.0135">
            <stop stop-color="#246BFD" />
            <stop offset="1" stop-color="#5089FF" />
        </linearGradient>
        <linearGradient gradientUnits="userSpaceOnUse" id="paint14_linear_555_63616" x1="158.075" x2="147.204"
            y1="128.563" y2="127.986">
            <stop stop-color="#246BFD" />
            <stop offset="1" stop-color="#5089FF" />
        </linearGradient>
        <linearGradient gradientUnits="userSpaceOnUse" id="paint15_linear_555_63616" x1="156.129" x2="147.824"
            y1="110.47" y2="109.623">
            <stop stop-color="#246BFD" />
            <stop offset="1" stop-color="#5089FF" />
        </linearGradient>
        <linearGradient gradientUnits="userSpaceOnUse" id="paint16_linear_555_63616" x1="157.062" x2="135.063"
            y1="130.756" y2="128.482">
            <stop stop-color="#246BFD" />
            <stop offset="1" stop-color="#5089FF" />
        </linearGradient>
        <linearGradient gradientUnits="userSpaceOnUse" id="paint17_linear_555_63616" x1="156.148" x2="138.771"
            y1="85.0058" y2="80.4519">
            <stop stop-color="#246BFD" />
            <stop offset="1" stop-color="#5089FF" />
        </linearGradient>
        <linearGradient gradientUnits="userSpaceOnUse" id="paint18_linear_555_63616" x1="153.432" x2="149.319"
            y1="80.7885" y2="78.3727">
            <stop stop-color="#246BFD" />
            <stop offset="1" stop-color="#5089FF" />
        </linearGradient>
    </defs>
</svg>
